<svg width="16" height="16" viewBox="0 0 16 16" fill="none" xmlns="http://www.w3.org/2000/svg">
<circle cx="7.99999" cy="7.99999" r="5.48571" stroke="#437D43" stroke-width="0.457143"/>
<g clip-path="url(#clip0_2_85)">
<path d="M9.11428 6.52283C9.06 5.72569 8.73714 4.94855 8.13143 4.34283C7.54552 4.92654 7.18519 5.69883 7.11428 6.52283C7.48286 6.71712 7.82 6.96855 8.11428 7.27426C8.40683 6.97367 8.74416 6.72019 9.11428 6.52283ZM8.11428 8.18569C7.5 7.24855 6.45143 6.62855 5.25714 6.62855C5.25714 9.48569 7.92 10.0257 8.11428 10.0571C8.30857 10.0228 10.9714 9.48569 10.9714 6.62855C9.77714 6.62855 8.72857 7.24855 8.11428 8.18569Z" fill="#67125E"/>
</g>
<path d="M5.51562 11.1286C5.51026 11.1122 5.5032 11.0975 5.49443 11.0845C5.48583 11.0714 5.47552 11.0602 5.46351 11.0509C5.45166 11.0416 5.43818 11.0346 5.42309 11.0297C5.40799 11.0248 5.39143 11.0224 5.37341 11.0224C5.34386 11.0224 5.317 11.03 5.29281 11.0453C5.26862 11.0606 5.24938 11.083 5.2351 11.1128C5.22081 11.1425 5.21367 11.1789 5.21367 11.2221C5.21367 11.2653 5.22089 11.3017 5.23534 11.3314C5.24979 11.3611 5.26935 11.3836 5.29403 11.3989C5.3187 11.4141 5.34646 11.4218 5.37731 11.4218C5.40588 11.4218 5.43104 11.4157 5.45279 11.4035C5.47471 11.3912 5.49175 11.3738 5.50393 11.3514C5.51627 11.3288 5.52244 11.3023 5.52244 11.2718L5.54094 11.2757H5.39094V11.2221H5.58088V11.2757C5.58088 11.3167 5.57211 11.3524 5.55458 11.3828C5.53721 11.4132 5.51318 11.4367 5.4825 11.4534C5.45198 11.47 5.41692 11.4783 5.37731 11.4783C5.33315 11.4783 5.29435 11.4679 5.26091 11.4471C5.22763 11.4263 5.20166 11.3968 5.18299 11.3584C5.16448 11.3201 5.15523 11.2747 5.15523 11.2221C5.15523 11.1826 5.1605 11.1472 5.17106 11.1157C5.18177 11.084 5.19687 11.0571 5.21635 11.0348C5.23583 11.0126 5.25888 10.9955 5.2855 10.9837C5.31213 10.9718 5.34143 10.9659 5.37341 10.9659C5.39971 10.9659 5.42422 10.9699 5.44695 10.9778C5.46984 10.9856 5.49021 10.9968 5.50807 11.0112C5.52609 11.0255 5.5411 11.0426 5.55312 11.0626C5.56513 11.0824 5.57341 11.1044 5.57796 11.1286H5.51562ZM5.78658 11.4802C5.76288 11.4802 5.74137 11.4757 5.72205 11.4668C5.70273 11.4577 5.68739 11.4446 5.67603 11.4276C5.66466 11.4104 5.65898 11.3896 5.65898 11.3653C5.65898 11.3438 5.6632 11.3265 5.67164 11.3132C5.68009 11.2997 5.69137 11.2891 5.70549 11.2815C5.71962 11.2739 5.7352 11.2682 5.75225 11.2645C5.76945 11.2606 5.78674 11.2575 5.80411 11.2552C5.82684 11.2523 5.84526 11.2501 5.85939 11.2486C5.87367 11.247 5.88406 11.2443 5.89056 11.2406C5.89721 11.2369 5.90054 11.2304 5.90054 11.2211V11.2192C5.90054 11.1951 5.89397 11.1765 5.88082 11.1632C5.86783 11.1498 5.84811 11.1432 5.82164 11.1432C5.79421 11.1432 5.7727 11.1492 5.75712 11.1612C5.74153 11.1732 5.73057 11.186 5.72424 11.1997L5.6697 11.1802C5.67944 11.1575 5.69242 11.1398 5.70866 11.1271C5.72505 11.1143 5.74291 11.1054 5.76223 11.1003C5.78171 11.0951 5.80087 11.0925 5.8197 11.0925C5.83171 11.0925 5.84551 11.094 5.86109 11.0969C5.87684 11.0997 5.89202 11.1054 5.90663 11.1142C5.9214 11.123 5.93366 11.1362 5.9434 11.1539C5.95314 11.1716 5.95801 11.1953 5.95801 11.225V11.4714H5.90054V11.4208H5.89762C5.89372 11.4289 5.88723 11.4376 5.87814 11.4468C5.86905 11.4561 5.85695 11.464 5.84186 11.4705C5.82676 11.477 5.80833 11.4802 5.78658 11.4802ZM5.79535 11.4286C5.81807 11.4286 5.83723 11.4241 5.85281 11.4152C5.86856 11.4063 5.88041 11.3947 5.88837 11.3806C5.89648 11.3665 5.90054 11.3516 5.90054 11.336V11.2834C5.89811 11.2864 5.89275 11.289 5.88447 11.2915C5.87635 11.2938 5.86694 11.2958 5.85622 11.2976C5.84567 11.2992 5.83536 11.3007 5.8253 11.302C5.81539 11.3031 5.80736 11.3041 5.80119 11.3049C5.78625 11.3068 5.77229 11.31 5.75931 11.3144C5.74648 11.3186 5.73609 11.325 5.72814 11.3336C5.72035 11.3421 5.71645 11.3536 5.71645 11.3682C5.71645 11.3882 5.72384 11.4033 5.73861 11.4135C5.75354 11.4235 5.77246 11.4286 5.79535 11.4286ZM6.0629 11.4714V11.0974H6.11842V11.1539H6.12231C6.12913 11.1354 6.14147 11.1204 6.15933 11.1089C6.17718 11.0973 6.19731 11.0916 6.21972 11.0916C6.22394 11.0916 6.22921 11.0916 6.23554 11.0918C6.24188 11.092 6.24666 11.0922 6.24991 11.0925V11.151C6.24796 11.1505 6.2435 11.1498 6.23652 11.1488C6.2297 11.1477 6.22248 11.1471 6.21485 11.1471C6.19666 11.1471 6.18043 11.1509 6.16615 11.1585C6.15202 11.166 6.14082 11.1764 6.13254 11.1897C6.12442 11.2028 6.12037 11.2179 6.12037 11.2347V11.4714H6.0629ZM6.44788 11.4792C6.41671 11.4792 6.3892 11.4714 6.36533 11.4556C6.34147 11.4397 6.3228 11.4173 6.30933 11.3884C6.29585 11.3593 6.28912 11.325 6.28912 11.2854C6.28912 11.2461 6.29585 11.212 6.30933 11.1831C6.3228 11.1542 6.34155 11.1319 6.36558 11.1162C6.3896 11.1004 6.41736 11.0925 6.44886 11.0925C6.47321 11.0925 6.49244 11.0966 6.50657 11.1047C6.52085 11.1127 6.53173 11.1218 6.5392 11.132C6.54683 11.1421 6.55275 11.1503 6.55697 11.1568H6.56184V10.9727H6.61931V11.4714H6.56379V11.414H6.55697C6.55275 11.4208 6.54675 11.4294 6.53895 11.4398C6.53116 11.45 6.52004 11.4592 6.50559 11.4673C6.49115 11.4753 6.47191 11.4792 6.44788 11.4792ZM6.45567 11.4276C6.47873 11.4276 6.49821 11.4216 6.51412 11.4096C6.53003 11.3974 6.54212 11.3806 6.5504 11.3592C6.55868 11.3376 6.56282 11.3127 6.56282 11.2844C6.56282 11.2565 6.55876 11.2321 6.55064 11.2111C6.54253 11.19 6.53051 11.1736 6.5146 11.1619C6.49869 11.1501 6.47905 11.1442 6.45567 11.1442C6.43132 11.1442 6.41103 11.1504 6.3948 11.1629C6.37873 11.1753 6.36663 11.1921 6.35852 11.2133C6.35056 11.2344 6.34658 11.2581 6.34658 11.2844C6.34658 11.311 6.35064 11.3352 6.35876 11.357C6.36704 11.3786 6.37921 11.3958 6.39528 11.4086C6.41152 11.4213 6.43165 11.4276 6.45567 11.4276ZM6.88936 11.4792C6.85332 11.4792 6.82223 11.4713 6.7961 11.4554C6.77012 11.4393 6.75007 11.4169 6.73595 11.3882C6.72199 11.3593 6.71501 11.3257 6.71501 11.2873C6.71501 11.249 6.72199 11.2153 6.73595 11.186C6.75007 11.1567 6.76972 11.1338 6.79488 11.1174C6.8202 11.1008 6.84975 11.0925 6.88352 11.0925C6.903 11.0925 6.92223 11.0958 6.94123 11.1023C6.96022 11.1088 6.97751 11.1193 6.99309 11.1339C7.00868 11.1484 7.0211 11.1675 7.03035 11.1914C7.0396 11.2153 7.04423 11.2446 7.04423 11.2796V11.3039H6.75592V11.2542H6.98579C6.98579 11.2331 6.98157 11.2143 6.97313 11.1977C6.96485 11.1812 6.953 11.1681 6.93757 11.1585C6.92231 11.149 6.90429 11.1442 6.88352 11.1442C6.86063 11.1442 6.84082 11.1498 6.8241 11.1612C6.80754 11.1724 6.7948 11.187 6.78587 11.205C6.77694 11.2231 6.77248 11.2424 6.77248 11.263V11.2961C6.77248 11.3244 6.77735 11.3483 6.78709 11.3679C6.79699 11.3874 6.81071 11.4023 6.82824 11.4125C6.84577 11.4226 6.86615 11.4276 6.88936 11.4276C6.90446 11.4276 6.91809 11.4255 6.93027 11.4213C6.94261 11.4169 6.95324 11.4104 6.96217 11.4018C6.9711 11.393 6.978 11.3821 6.98287 11.3692L7.03839 11.3847C7.03254 11.4036 7.02272 11.4201 7.00892 11.4344C6.99512 11.4485 6.97808 11.4596 6.95778 11.4675C6.93749 11.4753 6.91468 11.4792 6.88936 11.4792ZM7.18912 11.2464V11.4714H7.13165V11.0974H7.18717V11.1559H7.19204C7.2008 11.1369 7.21412 11.1216 7.23197 11.1101C7.24983 11.0984 7.27288 11.0925 7.30113 11.0925C7.32645 11.0925 7.34861 11.0977 7.36761 11.1081C7.3866 11.1184 7.40137 11.1339 7.41192 11.1549C7.42248 11.1757 7.42775 11.202 7.42775 11.2338V11.4714H7.37029V11.2377C7.37029 11.2083 7.36266 11.1854 7.3474 11.169C7.33214 11.1524 7.31119 11.1442 7.28457 11.1442C7.26623 11.1442 7.24983 11.1481 7.23538 11.1561C7.2211 11.164 7.20981 11.1757 7.20154 11.1909C7.19326 11.2062 7.18912 11.2247 7.18912 11.2464ZM7.86686 11.4783C7.83406 11.4783 7.80582 11.4722 7.78212 11.4602C7.75841 11.4482 7.74015 11.4317 7.72733 11.4108C7.7145 11.3899 7.70809 11.3659 7.70809 11.339C7.70809 11.3182 7.71247 11.2998 7.72124 11.2837C7.73017 11.2675 7.74242 11.2524 7.75801 11.2386C7.77375 11.2247 7.79186 11.2107 7.81231 11.1968L7.88439 11.1432C7.89851 11.1339 7.90979 11.124 7.91824 11.1135C7.92684 11.1029 7.93114 11.0891 7.93114 11.0721C7.93114 11.0594 7.92554 11.0472 7.91434 11.0353C7.9033 11.0235 7.88877 11.0175 7.87075 11.0175C7.85809 11.0175 7.84689 11.0208 7.83715 11.0273C7.82757 11.0336 7.82002 11.0417 7.8145 11.0516C7.80914 11.0614 7.80647 11.0714 7.80647 11.0818C7.80647 11.0935 7.80963 11.1054 7.81596 11.1174C7.82246 11.1292 7.83065 11.1414 7.84056 11.1539C7.85062 11.1662 7.86101 11.1789 7.87173 11.1919L8.10062 11.4714H8.03147L7.8425 11.2435C7.82497 11.2224 7.80906 11.2033 7.79478 11.186C7.78049 11.1688 7.76913 11.1519 7.76069 11.1352C7.75225 11.1184 7.74802 11.1003 7.74802 11.0809C7.74802 11.0584 7.75298 11.0388 7.76288 11.0219C7.77294 11.0049 7.78699 10.9916 7.805 10.9822C7.82319 10.9727 7.84445 10.9679 7.8688 10.9679C7.8938 10.9679 7.91531 10.9727 7.93333 10.9825C7.95135 10.9921 7.96523 11.0048 7.97497 11.0207C7.98471 11.0365 7.98958 11.0536 7.98958 11.0721C7.98958 11.0959 7.98366 11.1166 7.97181 11.1342C7.95996 11.1517 7.9438 11.168 7.92335 11.1831L7.824 11.2571C7.8016 11.2737 7.78642 11.2898 7.77846 11.3054C7.77051 11.3209 7.76653 11.3321 7.76653 11.339C7.76653 11.3546 7.77059 11.3691 7.77871 11.3826C7.78682 11.396 7.79827 11.4069 7.81304 11.4152C7.82781 11.4235 7.8451 11.4276 7.86491 11.4276C7.88374 11.4276 7.90208 11.4236 7.91994 11.4157C7.9378 11.4076 7.95395 11.3959 7.9684 11.3806C7.98301 11.3653 7.99453 11.347 8.00298 11.3256C8.01158 11.3041 8.01588 11.28 8.01588 11.2533H8.0714C8.0714 11.2864 8.06759 11.3134 8.05996 11.3343C8.05233 11.3553 8.04372 11.3717 8.03414 11.3835C8.02457 11.3954 8.01686 11.4042 8.01101 11.4101C8.00906 11.4125 8.00728 11.4149 8.00565 11.4174C8.00403 11.4198 8.00225 11.4222 8.0003 11.4247C7.98423 11.4427 7.96393 11.4562 7.93942 11.4651C7.91491 11.4739 7.89072 11.4783 7.86686 11.4783ZM8.36489 11.4714V10.9727H8.66391V11.0263H8.42528V11.1948H8.64151V11.2484H8.42528V11.4714H8.36489ZM8.81702 10.9727V11.4714H8.75955V10.9727H8.81702ZM9.07422 11.4792C9.04046 11.4792 9.01083 11.4712 8.98534 11.4551C8.96002 11.439 8.94021 11.4166 8.92593 11.3877C8.9118 11.3588 8.90474 11.325 8.90474 11.2864C8.90474 11.2474 8.9118 11.2134 8.92593 11.1843C8.94021 11.1553 8.96002 11.1327 8.98534 11.1166C9.01083 11.1006 9.04046 11.0925 9.07422 11.0925C9.10799 11.0925 9.13753 11.1006 9.16286 11.1166C9.18835 11.1327 9.20815 11.1553 9.22227 11.1843C9.23656 11.2134 9.2437 11.2474 9.2437 11.2864C9.2437 11.325 9.23656 11.3588 9.22227 11.3877C9.20815 11.4166 9.18835 11.439 9.16286 11.4551C9.13753 11.4712 9.10799 11.4792 9.07422 11.4792ZM9.07422 11.4276C9.09987 11.4276 9.12098 11.421 9.13753 11.4079C9.15409 11.3947 9.16635 11.3774 9.1743 11.356C9.18226 11.3346 9.18623 11.3114 9.18623 11.2864C9.18623 11.2614 9.18226 11.2381 9.1743 11.2165C9.16635 11.1949 9.15409 11.1774 9.13753 11.1641C9.12098 11.1508 9.09987 11.1442 9.07422 11.1442C9.04857 11.1442 9.02747 11.1508 9.01091 11.1641C8.99435 11.1774 8.9821 11.1949 8.97414 11.2165C8.96619 11.2381 8.96221 11.2614 8.96221 11.2864C8.96221 11.3114 8.96619 11.3346 8.97414 11.356C8.9821 11.3774 8.99435 11.3947 9.01091 11.4079C9.02747 11.421 9.04857 11.4276 9.07422 11.4276ZM9.40344 11.4714L9.28948 11.0974H9.34987L9.43072 11.3838H9.43461L9.51448 11.0974H9.57585L9.65474 11.3828H9.65864L9.73948 11.0974H9.79987L9.68591 11.4714H9.62942L9.5476 11.1841H9.54175L9.45994 11.4714H9.40344ZM10.0199 11.4792C9.9839 11.4792 9.95281 11.4713 9.92668 11.4554C9.9007 11.4393 9.88065 11.4169 9.86653 11.3882C9.85257 11.3593 9.84559 11.3257 9.84559 11.2873C9.84559 11.249 9.85257 11.2153 9.86653 11.186C9.88065 11.1567 9.9003 11.1338 9.92546 11.1174C9.95078 11.1008 9.98033 11.0925 10.0141 11.0925C10.0336 11.0925 10.0528 11.0958 10.0718 11.1023C10.0908 11.1088 10.1081 11.1193 10.1237 11.1339C10.1393 11.1484 10.1517 11.1675 10.1609 11.1914C10.1702 11.2153 10.1748 11.2446 10.1748 11.2796V11.3039H9.8865V11.2542H10.1164C10.1164 11.2331 10.1121 11.2143 10.1037 11.1977C10.0954 11.1812 10.0836 11.1681 10.0682 11.1585C10.0529 11.149 10.0349 11.1442 10.0141 11.1442C9.99121 11.1442 9.9714 11.1498 9.95468 11.1612C9.93812 11.1724 9.92538 11.187 9.91645 11.205C9.90752 11.2231 9.90306 11.2424 9.90306 11.263V11.2961C9.90306 11.3244 9.90793 11.3483 9.91767 11.3679C9.92757 11.3874 9.94129 11.4023 9.95882 11.4125C9.97635 11.4226 9.99673 11.4276 10.0199 11.4276C10.035 11.4276 10.0487 11.4255 10.0608 11.4213C10.0732 11.4169 10.0838 11.4104 10.0927 11.4018C10.1017 11.393 10.1086 11.3821 10.1134 11.3692L10.169 11.3847C10.1631 11.4036 10.1533 11.4201 10.1395 11.4344C10.1257 11.4485 10.1087 11.4596 10.0884 11.4675C10.0681 11.4753 10.0453 11.4792 10.0199 11.4792ZM10.2622 11.4714V11.0974H10.3177V11.1539H10.3216C10.3285 11.1354 10.3408 11.1204 10.3587 11.1089C10.3765 11.0973 10.3966 11.0916 10.419 11.0916C10.4233 11.0916 10.4285 11.0916 10.4349 11.0918C10.4412 11.092 10.446 11.0922 10.4492 11.0925V11.151C10.4473 11.1505 10.4428 11.1498 10.4358 11.1488C10.429 11.1477 10.4218 11.1471 10.4142 11.1471C10.396 11.1471 10.3798 11.1509 10.3655 11.1585C10.3514 11.166 10.3402 11.1764 10.3319 11.1897C10.3238 11.2028 10.3197 11.2179 10.3197 11.2347V11.4714H10.2622ZM10.7823 11.1812L10.7307 11.1958C10.7274 11.1872 10.7226 11.1788 10.7163 11.1707C10.7101 11.1624 10.7017 11.1556 10.691 11.1503C10.6803 11.1449 10.6666 11.1422 10.6498 11.1422C10.6269 11.1422 10.6079 11.1475 10.5926 11.158C10.5775 11.1684 10.57 11.1817 10.57 11.1977C10.57 11.212 10.5752 11.2233 10.5855 11.2316C10.5959 11.2399 10.6122 11.2468 10.6342 11.2523L10.6898 11.2659C10.7232 11.274 10.7481 11.2865 10.7645 11.3032C10.7809 11.3197 10.7891 11.3411 10.7891 11.3672C10.7891 11.3886 10.7829 11.4078 10.7706 11.4247C10.7584 11.4416 10.7414 11.4549 10.7195 11.4646C10.6976 11.4744 10.6721 11.4792 10.643 11.4792C10.6049 11.4792 10.5733 11.4709 10.5483 11.4544C10.5233 11.4378 10.5075 11.4136 10.5008 11.3818L10.5554 11.3682C10.5605 11.3883 10.5704 11.4034 10.5848 11.4135C10.5994 11.4235 10.6185 11.4286 10.642 11.4286C10.6688 11.4286 10.6901 11.4229 10.7058 11.4115C10.7217 11.4 10.7297 11.3862 10.7297 11.3701C10.7297 11.3571 10.7252 11.3463 10.7161 11.3375C10.707 11.3286 10.693 11.3219 10.6742 11.3175L10.6118 11.3029C10.5776 11.2948 10.5524 11.2822 10.5364 11.2652C10.5204 11.248 10.5125 11.2265 10.5125 11.2007C10.5125 11.1796 10.5184 11.1609 10.5303 11.1446C10.5423 11.1284 10.5586 11.1157 10.5792 11.1064C10.6 11.0972 10.6235 11.0925 10.6498 11.0925C10.6868 11.0925 10.7159 11.1007 10.737 11.1169C10.7583 11.1331 10.7734 11.1546 10.7823 11.1812Z" fill="#437D43"/>
<defs>
<clipPath id="clip0_2_85">
<rect width="6.62857" height="6.62857" fill="white" transform="translate(4.79999 3.88568)"/>
</clipPath>
</defs>
</svg>
