<svg width="34" height="34" viewBox="0 0 34 34" fill="none" xmlns="http://www.w3.org/2000/svg">
<circle cx="17" cy="17" r="11.6571" stroke="#437D43" stroke-width="0.971429"/>
<path d="M19.3678 13.8611C19.2525 12.1671 18.5664 10.5157 17.2793 9.22857C16.0342 10.469 15.2685 12.1101 15.1178 13.8611C15.9011 14.2739 16.6175 14.8082 17.2428 15.4579C17.8645 14.8191 18.5813 14.2804 19.3678 13.8611ZM17.2428 17.3946C15.9375 15.4032 13.7093 14.0857 11.1714 14.0857C11.1714 20.1571 16.83 21.3046 17.2428 21.3714C17.6557 21.2986 23.3143 20.1571 23.3143 14.0857C20.7764 14.0857 18.5482 15.4032 17.2428 17.3946Z" fill="#67125E"/>
<path d="M11.5956 23.5857C11.5842 23.5509 11.5692 23.5197 11.5506 23.4921C11.5323 23.4641 11.5104 23.4403 11.4849 23.4206C11.4597 23.401 11.4311 23.386 11.399 23.3756C11.3669 23.3653 11.3317 23.3601 11.2934 23.3601C11.2306 23.3601 11.1736 23.3763 11.1222 23.4087C11.0708 23.4412 11.0299 23.4889 10.9995 23.5521C10.9692 23.6152 10.954 23.6927 10.954 23.7844C10.954 23.8762 10.9693 23.9536 11 24.0167C11.0307 24.0799 11.0723 24.1277 11.1247 24.1601C11.1772 24.1925 11.2362 24.2087 11.3017 24.2087C11.3624 24.2087 11.4159 24.1958 11.4621 24.1699C11.5087 24.1437 11.5449 24.1068 11.5708 24.0592C11.597 24.0112 11.6101 23.9548 11.6101 23.89L11.6494 23.8983H11.3307V23.7844H11.7343V23.8983C11.7343 23.9855 11.7157 24.0614 11.6784 24.1259C11.6415 24.1904 11.5904 24.2405 11.5252 24.276C11.4604 24.3112 11.3859 24.3288 11.3017 24.3288C11.2079 24.3288 11.1254 24.3067 11.0544 24.2625C10.9836 24.2184 10.9285 24.1556 10.8888 24.0742C10.8495 23.9928 10.8298 23.8962 10.8298 23.7844C10.8298 23.7006 10.841 23.6252 10.8634 23.5583C10.8862 23.491 10.9183 23.4338 10.9597 23.3865C11.0011 23.3392 11.0501 23.303 11.1066 23.2778C11.1632 23.2526 11.2255 23.2401 11.2934 23.2401C11.3493 23.2401 11.4014 23.2485 11.4497 23.2654C11.4983 23.282 11.5416 23.3056 11.5796 23.3363C11.6179 23.3667 11.6498 23.4031 11.6753 23.4455C11.7008 23.4876 11.7184 23.5343 11.7281 23.5857H11.5956ZM12.1714 24.3329C12.121 24.3329 12.0753 24.3234 12.0343 24.3045C11.9932 24.2851 11.9606 24.2574 11.9365 24.2211C11.9123 24.1846 11.9003 24.1404 11.9003 24.0887C11.9003 24.0431 11.9092 24.0062 11.9272 23.9779C11.9451 23.9493 11.9691 23.9269 11.9991 23.9107C12.0291 23.8945 12.0622 23.8824 12.0985 23.8744C12.135 23.8662 12.1718 23.8596 12.2087 23.8548C12.257 23.8486 12.2961 23.8439 12.3261 23.8408C12.3565 23.8374 12.3786 23.8317 12.3924 23.8237C12.4065 23.8158 12.4136 23.802 12.4136 23.7823V23.7782C12.4136 23.7271 12.3996 23.6875 12.3717 23.6592C12.3441 23.6309 12.3022 23.6168 12.2459 23.6168C12.1876 23.6168 12.1419 23.6295 12.1088 23.6551C12.0757 23.6806 12.0524 23.7078 12.0389 23.7368L11.923 23.6954C11.9437 23.6471 11.9713 23.6095 12.0058 23.5826C12.0407 23.5554 12.0786 23.5364 12.1197 23.5257C12.1611 23.5146 12.2018 23.5091 12.2418 23.5091C12.2673 23.5091 12.2966 23.5122 12.3298 23.5184C12.3632 23.5243 12.3955 23.5366 12.4265 23.5552C12.4579 23.5738 12.484 23.6019 12.5047 23.6395C12.5253 23.6771 12.5357 23.7275 12.5357 23.7906V24.3143H12.4136V24.2067H12.4074C12.3991 24.2239 12.3853 24.2424 12.366 24.262C12.3467 24.2817 12.321 24.2984 12.2889 24.3122C12.2568 24.326 12.2176 24.3329 12.1714 24.3329ZM12.19 24.2232C12.2383 24.2232 12.279 24.2137 12.3122 24.1948C12.3456 24.1758 12.3708 24.1513 12.3877 24.1213C12.405 24.0913 12.4136 24.0597 12.4136 24.0266V23.9148C12.4084 23.921 12.397 23.9267 12.3794 23.9319C12.3622 23.9367 12.3422 23.941 12.3194 23.9448C12.297 23.9483 12.2751 23.9514 12.2537 23.9541C12.2326 23.9566 12.2156 23.9586 12.2025 23.9603C12.1707 23.9645 12.1411 23.9712 12.1135 23.9805C12.0862 23.9895 12.0641 24.0031 12.0472 24.0214C12.0307 24.0393 12.0224 24.0638 12.0224 24.0949C12.0224 24.1373 12.0381 24.1694 12.0695 24.1911C12.1012 24.2125 12.1414 24.2232 12.19 24.2232ZM12.7586 24.3143V23.5195H12.8766V23.6395H12.8848C12.8993 23.6002 12.9256 23.5683 12.9635 23.5438C13.0014 23.5193 13.0442 23.5071 13.0918 23.5071C13.1008 23.5071 13.112 23.5072 13.1255 23.5076C13.1389 23.5079 13.1491 23.5084 13.156 23.5091V23.6333C13.1519 23.6323 13.1424 23.6307 13.1275 23.6287C13.113 23.6262 13.0977 23.625 13.0815 23.625C13.0428 23.625 13.0083 23.6331 12.978 23.6494C12.948 23.6652 12.9242 23.6873 12.9066 23.7156C12.8893 23.7435 12.8807 23.7754 12.8807 23.8113V24.3143H12.7586ZM13.5767 24.3308C13.5104 24.3308 13.452 24.3141 13.4013 24.2806C13.3506 24.2468 13.3109 24.1992 13.2823 24.1378C13.2536 24.0761 13.2393 24.0031 13.2393 23.919C13.2393 23.8355 13.2536 23.763 13.2823 23.7016C13.3109 23.6402 13.3507 23.5928 13.4018 23.5593C13.4528 23.5259 13.5118 23.5091 13.5788 23.5091C13.6305 23.5091 13.6714 23.5178 13.7014 23.535C13.7317 23.5519 13.7549 23.5712 13.7707 23.593C13.7869 23.6143 13.7995 23.6319 13.8085 23.6457H13.8188V23.2545H13.941V24.3143H13.823V24.1922H13.8085C13.7995 24.2067 13.7868 24.2249 13.7702 24.247C13.7536 24.2687 13.73 24.2882 13.6993 24.3055C13.6686 24.3224 13.6277 24.3308 13.5767 24.3308ZM13.5932 24.2211C13.6422 24.2211 13.6836 24.2084 13.7174 24.1829C13.7512 24.157 13.7769 24.1213 13.7945 24.0757C13.8121 24.0299 13.8209 23.9769 13.8209 23.9169C13.8209 23.8575 13.8123 23.8056 13.795 23.7611C13.7778 23.7163 13.7523 23.6814 13.7185 23.6566C13.6847 23.6314 13.6429 23.6188 13.5932 23.6188C13.5415 23.6188 13.4984 23.6321 13.4639 23.6587C13.4297 23.6849 13.404 23.7206 13.3868 23.7658C13.3699 23.8106 13.3614 23.861 13.3614 23.9169C13.3614 23.9735 13.37 24.0249 13.3873 24.0711C13.4049 24.117 13.4308 24.1535 13.4649 24.1808C13.4994 24.2077 13.5422 24.2211 13.5932 24.2211ZM14.5148 24.3308C14.4382 24.3308 14.3722 24.3139 14.3166 24.2801C14.2614 24.246 14.2188 24.1984 14.1888 24.1373C14.1592 24.0759 14.1443 24.0045 14.1443 23.9231C14.1443 23.8417 14.1592 23.7699 14.1888 23.7078C14.2188 23.6454 14.2606 23.5968 14.314 23.5619C14.3679 23.5267 14.4306 23.5091 14.5024 23.5091C14.5438 23.5091 14.5847 23.516 14.625 23.5298C14.6654 23.5436 14.7021 23.566 14.7353 23.5971C14.7684 23.6278 14.7948 23.6685 14.8144 23.7192C14.8341 23.7699 14.8439 23.8324 14.8439 23.9065V23.9583H14.2313V23.8527H14.7197C14.7197 23.8079 14.7108 23.7679 14.6928 23.7327C14.6752 23.6975 14.65 23.6697 14.6173 23.6494C14.5848 23.629 14.5466 23.6188 14.5024 23.6188C14.4538 23.6188 14.4117 23.6309 14.3761 23.6551C14.341 23.6789 14.3139 23.7099 14.2949 23.7482C14.2759 23.7865 14.2664 23.8275 14.2664 23.8713V23.9417C14.2664 24.0017 14.2768 24.0526 14.2975 24.0944C14.3185 24.1358 14.3477 24.1673 14.3849 24.1891C14.4222 24.2104 14.4655 24.2211 14.5148 24.2211C14.5469 24.2211 14.5759 24.2167 14.6018 24.2077C14.628 24.1984 14.6506 24.1846 14.6695 24.1663C14.6885 24.1477 14.7032 24.1246 14.7135 24.097L14.8315 24.1301C14.8191 24.1701 14.7982 24.2053 14.7689 24.2356C14.7396 24.2656 14.7033 24.2891 14.6602 24.306C14.6171 24.3226 14.5686 24.3308 14.5148 24.3308ZM15.1518 23.8362V24.3143H15.0297V23.5195H15.1477V23.6437H15.158C15.1766 23.6033 15.2049 23.5709 15.2429 23.5464C15.2808 23.5215 15.3298 23.5091 15.3898 23.5091C15.4436 23.5091 15.4907 23.5202 15.5311 23.5422C15.5715 23.564 15.6028 23.5971 15.6253 23.6416C15.6477 23.6858 15.6589 23.7416 15.6589 23.8093V24.3143H15.5368V23.8175C15.5368 23.7551 15.5206 23.7065 15.4881 23.6716C15.4557 23.6364 15.4112 23.6188 15.3546 23.6188C15.3157 23.6188 15.2808 23.6273 15.2501 23.6442C15.2198 23.6611 15.1958 23.6858 15.1782 23.7182C15.1606 23.7506 15.1518 23.7899 15.1518 23.8362ZM16.592 24.3288C16.5223 24.3288 16.4623 24.316 16.4119 24.2905C16.3616 24.265 16.3228 24.2299 16.2955 24.1854C16.2682 24.1409 16.2546 24.0901 16.2546 24.0328C16.2546 23.9886 16.2639 23.9495 16.2826 23.9153C16.3015 23.8808 16.3276 23.8489 16.3607 23.8196C16.3942 23.7899 16.4326 23.7603 16.4761 23.7306L16.6293 23.6168C16.6593 23.5971 16.6832 23.5761 16.7012 23.5536C16.7195 23.5312 16.7286 23.5019 16.7286 23.4657C16.7286 23.4388 16.7167 23.4127 16.6929 23.3875C16.6694 23.3623 16.6386 23.3498 16.6003 23.3498C16.5734 23.3498 16.5496 23.3567 16.5289 23.3705C16.5085 23.3839 16.4925 23.4012 16.4807 23.4222C16.4694 23.4429 16.4637 23.4643 16.4637 23.4864C16.4637 23.5112 16.4704 23.5364 16.4839 23.5619C16.4977 23.5871 16.5151 23.613 16.5361 23.6395C16.5575 23.6657 16.5796 23.6927 16.6023 23.7202L17.0888 24.3143H16.9418L16.5403 23.8299C16.503 23.7851 16.4692 23.7444 16.4388 23.7078C16.4085 23.6713 16.3843 23.6352 16.3664 23.5997C16.3485 23.5642 16.3395 23.5257 16.3395 23.4843C16.3395 23.4367 16.35 23.3949 16.371 23.3591C16.3924 23.3228 16.4223 23.2947 16.4606 23.2747C16.4992 23.2544 16.5444 23.2442 16.5961 23.2442C16.6493 23.2442 16.695 23.2545 16.7333 23.2752C16.7716 23.2956 16.801 23.3227 16.8217 23.3565C16.8424 23.3899 16.8528 23.4263 16.8528 23.4657C16.8528 23.5164 16.8402 23.5604 16.815 23.5976C16.7898 23.6349 16.7555 23.6695 16.712 23.7016L16.5009 23.8589C16.4533 23.8941 16.4211 23.9283 16.4042 23.9614C16.3873 23.9945 16.3788 24.0183 16.3788 24.0328C16.3788 24.0659 16.3874 24.0968 16.4047 24.1254C16.4219 24.154 16.4463 24.1772 16.4776 24.1948C16.509 24.2123 16.5458 24.2211 16.5879 24.2211C16.6279 24.2211 16.6669 24.2127 16.7048 24.1958C16.7427 24.1785 16.7771 24.1537 16.8078 24.1213C16.8388 24.0888 16.8633 24.0499 16.8813 24.0043C16.8995 23.9588 16.9087 23.9076 16.9087 23.8506H17.0267C17.0267 23.921 17.0186 23.9785 17.0023 24.023C16.9861 24.0675 16.9678 24.1023 16.9475 24.1275C16.9271 24.1527 16.9107 24.1715 16.8983 24.1839C16.8942 24.1891 16.8904 24.1942 16.8869 24.1994C16.8835 24.2046 16.8797 24.2098 16.8756 24.2149C16.8414 24.2532 16.7983 24.2819 16.7462 24.3008C16.6941 24.3195 16.6427 24.3288 16.592 24.3288ZM17.6503 24.3143V23.2545H18.2857V23.3684H17.7786V23.7265H18.2381V23.8403H17.7786V24.3143H17.6503ZM18.6111 23.2545V24.3143H18.489V23.2545H18.6111ZM19.1577 24.3308C19.0859 24.3308 19.0229 24.3138 18.9688 24.2796C18.915 24.2455 18.8729 24.1977 18.8425 24.1363C18.8125 24.0749 18.7975 24.0031 18.7975 23.921C18.7975 23.8382 18.8125 23.766 18.8425 23.7042C18.8729 23.6425 18.915 23.5945 18.9688 23.5604C19.0229 23.5262 19.0859 23.5091 19.1577 23.5091C19.2294 23.5091 19.2922 23.5262 19.346 23.5604C19.4002 23.5945 19.4423 23.6425 19.4723 23.7042C19.5026 23.766 19.5178 23.8382 19.5178 23.921C19.5178 24.0031 19.5026 24.0749 19.4723 24.1363C19.4423 24.1977 19.4002 24.2455 19.346 24.2796C19.2922 24.3138 19.2294 24.3308 19.1577 24.3308ZM19.1577 24.2211C19.2122 24.2211 19.257 24.2072 19.2922 24.1792C19.3274 24.1513 19.3534 24.1145 19.3703 24.069C19.3872 24.0235 19.3957 23.9741 19.3957 23.921C19.3957 23.8679 19.3872 23.8184 19.3703 23.7725C19.3534 23.7266 19.3274 23.6895 19.2922 23.6613C19.257 23.633 19.2122 23.6188 19.1577 23.6188C19.1031 23.6188 19.0583 23.633 19.0231 23.6613C18.9879 23.6895 18.9619 23.7266 18.945 23.7725C18.9281 23.8184 18.9196 23.8679 18.9196 23.921C18.9196 23.9741 18.9281 24.0235 18.945 24.069C18.9619 24.1145 18.9879 24.1513 19.0231 24.1792C19.0583 24.2072 19.1031 24.2211 19.1577 24.2211ZM19.8572 24.3143L19.6151 23.5195H19.7434L19.9152 24.128H19.9235L20.0932 23.5195H20.2236L20.3913 24.1259H20.3995L20.5713 23.5195H20.6997L20.4575 24.3143H20.3374L20.1636 23.7037H20.1512L19.9773 24.3143H19.8572ZM21.1673 24.3308C21.0907 24.3308 21.0247 24.3139 20.9691 24.2801C20.9139 24.246 20.8713 24.1984 20.8413 24.1373C20.8116 24.0759 20.7968 24.0045 20.7968 23.9231C20.7968 23.8417 20.8116 23.7699 20.8413 23.7078C20.8713 23.6454 20.9131 23.5968 20.9665 23.5619C21.0203 23.5267 21.0831 23.5091 21.1549 23.5091C21.1963 23.5091 21.2372 23.516 21.2775 23.5298C21.3179 23.5436 21.3546 23.566 21.3877 23.5971C21.4209 23.6278 21.4472 23.6685 21.4669 23.7192C21.4866 23.7699 21.4964 23.8324 21.4964 23.9065V23.9583H20.8837V23.8527H21.3722C21.3722 23.8079 21.3632 23.7679 21.3453 23.7327C21.3277 23.6975 21.3025 23.6697 21.2698 23.6494C21.2373 23.629 21.199 23.6188 21.1549 23.6188C21.1062 23.6188 21.0642 23.6309 21.0286 23.6551C20.9934 23.6789 20.9664 23.7099 20.9474 23.7482C20.9284 23.7865 20.9189 23.8275 20.9189 23.8713V23.9417C20.9189 24.0017 20.9293 24.0526 20.95 24.0944C20.971 24.1358 21.0002 24.1673 21.0374 24.1891C21.0747 24.2104 21.118 24.2211 21.1673 24.2211C21.1994 24.2211 21.2284 24.2167 21.2542 24.2077C21.2805 24.1984 21.303 24.1846 21.322 24.1663C21.341 24.1477 21.3557 24.1246 21.366 24.097L21.484 24.1301C21.4716 24.1701 21.4507 24.2053 21.4214 24.2356C21.392 24.2656 21.3558 24.2891 21.3127 24.306C21.2696 24.3226 21.2211 24.3308 21.1673 24.3308ZM21.6822 24.3143V23.5195H21.8001V23.6395H21.8084C21.8229 23.6002 21.8491 23.5683 21.8871 23.5438C21.925 23.5193 21.9678 23.5071 22.0154 23.5071C22.0244 23.5071 22.0356 23.5072 22.049 23.5076C22.0625 23.5079 22.0727 23.5084 22.0796 23.5091V23.6333C22.0754 23.6323 22.0659 23.6307 22.0511 23.6287C22.0366 23.6262 22.0213 23.625 22.0051 23.625C21.9664 23.625 21.9319 23.6331 21.9016 23.6494C21.8716 23.6652 21.8478 23.6873 21.8302 23.7156C21.8129 23.7435 21.8043 23.7754 21.8043 23.8113V24.3143H21.6822ZM22.7873 23.6975L22.6776 23.7285C22.6707 23.7102 22.6605 23.6925 22.6471 23.6752C22.634 23.6576 22.616 23.6431 22.5933 23.6318C22.5705 23.6204 22.5414 23.6147 22.5058 23.6147C22.4572 23.6147 22.4166 23.6259 22.3842 23.6483C22.3521 23.6704 22.3361 23.6985 22.3361 23.7327C22.3361 23.763 22.3471 23.787 22.3692 23.8046C22.3913 23.8222 22.4258 23.8368 22.4727 23.8486L22.5907 23.8776C22.6617 23.8948 22.7147 23.9212 22.7495 23.9567C22.7844 23.9919 22.8018 24.0373 22.8018 24.0928C22.8018 24.1383 22.7887 24.1791 22.7625 24.2149C22.7366 24.2508 22.7004 24.2791 22.6538 24.2998C22.6072 24.3205 22.5531 24.3308 22.4913 24.3308C22.4103 24.3308 22.3432 24.3132 22.29 24.2781C22.2369 24.2429 22.2033 24.1915 22.1891 24.1239L22.305 24.0949C22.3161 24.1377 22.337 24.1697 22.3677 24.1911C22.3987 24.2125 22.4392 24.2232 22.4893 24.2232C22.5462 24.2232 22.5914 24.2111 22.6248 24.187C22.6586 24.1625 22.6755 24.1332 22.6755 24.099C22.6755 24.0714 22.6659 24.0483 22.6466 24.0297C22.6272 24.0107 22.5976 23.9966 22.5576 23.9873L22.4251 23.9562C22.3523 23.939 22.2988 23.9122 22.2647 23.876C22.2309 23.8394 22.214 23.7937 22.214 23.7389C22.214 23.694 22.2266 23.6544 22.2518 23.6199C22.2773 23.5854 22.3119 23.5583 22.3558 23.5386C22.3999 23.519 22.4499 23.5091 22.5058 23.5091C22.5845 23.5091 22.6462 23.5264 22.6911 23.5609C22.7363 23.5954 22.7683 23.6409 22.7873 23.6975Z" fill="#437D43"/>
</svg>
