<svg width="24" height="24" viewBox="0 0 24 24" fill="none" xmlns="http://www.w3.org/2000/svg">
<circle cx="12" cy="12" r="8.22857" stroke="#437D43" stroke-width="0.685714"/>
<g clip-path="url(#clip0_2_85)">
<path d="M13.6715 9.78428C13.59 8.58857 13.1057 7.42285 12.1972 6.51428C11.3183 7.38985 10.7778 8.54828 10.6715 9.78428C11.2243 10.0757 11.73 10.4529 12.1715 10.9114C12.6103 10.4605 13.1163 10.0803 13.6715 9.78428ZM12.1715 12.2786C11.25 10.8729 9.67717 9.94285 7.88574 9.94285C7.88574 14.2286 11.88 15.0386 12.1715 15.0857C12.4629 15.0343 16.4572 14.2286 16.4572 9.94285C14.6657 9.94285 13.0929 10.8729 12.1715 12.2786Z" fill="#67125E"/>
</g>
<path d="M8.2734 16.4429C8.26536 16.4183 8.25477 16.3962 8.24162 16.3768C8.22871 16.357 8.21325 16.3402 8.19523 16.3263C8.17745 16.3125 8.15724 16.3019 8.1346 16.2946C8.11195 16.2873 8.08711 16.2836 8.06008 16.2836C8.01577 16.2836 7.97547 16.2951 7.93918 16.3179C7.9029 16.3408 7.87405 16.3746 7.85262 16.4191C7.83119 16.4637 7.82047 16.5184 7.82047 16.5831C7.82047 16.6479 7.83131 16.7026 7.85298 16.7471C7.87465 16.7917 7.904 16.8254 7.94101 16.8483C7.97802 16.8712 8.01966 16.8826 8.06593 16.8826C8.10879 16.8826 8.14653 16.8735 8.17916 16.8552C8.21203 16.8367 8.2376 16.8107 8.25586 16.7771C8.27437 16.7432 8.28362 16.7034 8.28362 16.6576L8.31138 16.6635H8.08638V16.5831H8.37129V16.6635C8.37129 16.7251 8.35814 16.7787 8.33184 16.8242C8.30578 16.8697 8.26974 16.905 8.22372 16.9301C8.17794 16.955 8.12534 16.9674 8.06593 16.9674C7.99969 16.9674 7.9415 16.9518 7.89133 16.9206C7.84142 16.8895 7.80245 16.8451 7.77445 16.7877C7.74669 16.7302 7.73281 16.662 7.73281 16.5831C7.73281 16.524 7.74073 16.4707 7.75655 16.4235C7.77262 16.376 7.79527 16.3356 7.82449 16.3022C7.85371 16.2689 7.88829 16.2433 7.92823 16.2255C7.96816 16.2078 8.01211 16.1989 8.06008 16.1989C8.09953 16.1989 8.1363 16.2048 8.17039 16.2168C8.20473 16.2285 8.23529 16.2451 8.26207 16.2668C8.2891 16.2882 8.31163 16.3139 8.32965 16.3439C8.34767 16.3736 8.36008 16.4066 8.3669 16.4429H8.2734ZM8.67984 16.9703C8.64429 16.9703 8.61202 16.9636 8.58304 16.9502C8.55407 16.9366 8.53106 16.917 8.51401 16.8914C8.49697 16.8656 8.48844 16.8344 8.48844 16.7979C8.48844 16.7658 8.49477 16.7397 8.50744 16.7197C8.5201 16.6995 8.53702 16.6837 8.55821 16.6723C8.57939 16.6608 8.60277 16.6523 8.62834 16.6467C8.65415 16.6408 8.68008 16.6362 8.70614 16.6328C8.74023 16.6284 8.76787 16.6251 8.78905 16.6229C8.81048 16.6205 8.82606 16.6165 8.8358 16.6109C8.84579 16.6053 8.85078 16.5955 8.85078 16.5817V16.5787C8.85078 16.5427 8.84092 16.5147 8.82119 16.4947C8.80171 16.4748 8.77213 16.4648 8.73244 16.4648C8.69128 16.4648 8.65902 16.4738 8.63564 16.4918C8.61227 16.5098 8.59583 16.5291 8.58633 16.5495L8.50451 16.5203C8.51912 16.4862 8.5386 16.4597 8.56296 16.4407C8.58755 16.4214 8.61434 16.408 8.64331 16.4005C8.67253 16.3927 8.70127 16.3888 8.72951 16.3888C8.74753 16.3888 8.76823 16.391 8.79161 16.3954C8.81523 16.3995 8.838 16.4082 8.85991 16.4213C8.88207 16.4345 8.90046 16.4543 8.91507 16.4809C8.92968 16.5074 8.93698 16.5429 8.93698 16.5875V16.9572H8.85078V16.8812H8.8464C8.84055 16.8934 8.83081 16.9064 8.81718 16.9203C8.80354 16.9341 8.7854 16.946 8.76275 16.9557C8.74011 16.9654 8.71247 16.9703 8.67984 16.9703ZM8.69299 16.8929C8.72708 16.8929 8.75581 16.8862 8.77919 16.8728C8.80281 16.8594 8.82059 16.8421 8.83252 16.8209C8.84469 16.7997 8.85078 16.7774 8.85078 16.7541V16.6752C8.84713 16.6796 8.83909 16.6836 8.82667 16.6872C8.8145 16.6906 8.80037 16.6937 8.7843 16.6964C8.76848 16.6988 8.75301 16.701 8.73791 16.7029C8.72306 16.7046 8.71101 16.7061 8.70175 16.7073C8.67935 16.7102 8.65841 16.715 8.63893 16.7216C8.61969 16.7279 8.60411 16.7375 8.59218 16.7504C8.58049 16.7631 8.57464 16.7804 8.57464 16.8023C8.57464 16.8322 8.58572 16.8549 8.60788 16.8702C8.63029 16.8853 8.65865 16.8929 8.69299 16.8929ZM9.09432 16.9572V16.3961H9.1776V16.4809H9.18344C9.19367 16.4531 9.21217 16.4306 9.23896 16.4133C9.26575 16.396 9.29594 16.3873 9.32954 16.3873C9.33588 16.3873 9.34379 16.3875 9.35329 16.3877C9.36278 16.388 9.36997 16.3883 9.37484 16.3888V16.4765C9.37191 16.4757 9.36522 16.4746 9.35475 16.4732C9.34452 16.4715 9.33368 16.4706 9.32224 16.4706C9.29497 16.4706 9.27062 16.4763 9.24919 16.4878C9.228 16.499 9.2112 16.5146 9.19878 16.5345C9.18661 16.5543 9.18052 16.5768 9.18052 16.6021V16.9572H9.09432ZM9.67179 16.9688C9.62504 16.9688 9.58377 16.957 9.54797 16.9334C9.51217 16.9095 9.48417 16.8759 9.46396 16.8326C9.44375 16.789 9.43364 16.7375 9.43364 16.6781C9.43364 16.6192 9.44375 16.568 9.46396 16.5247C9.48417 16.4813 9.5123 16.4479 9.54834 16.4242C9.58437 16.4006 9.62601 16.3888 9.67325 16.3888C9.70978 16.3888 9.73864 16.3949 9.75982 16.4071C9.78125 16.419 9.79756 16.4326 9.80877 16.448C9.82021 16.4631 9.8291 16.4755 9.83543 16.4852H9.84273V16.2091H9.92894V16.9572H9.84566V16.871H9.83543C9.8291 16.8812 9.82009 16.8941 9.8084 16.9097C9.79671 16.925 9.78003 16.9388 9.75836 16.9509C9.73669 16.9629 9.70783 16.9688 9.67179 16.9688ZM9.68348 16.8914C9.71806 16.8914 9.74728 16.8824 9.77114 16.8644C9.79501 16.8461 9.81315 16.8209 9.82557 16.7888C9.83799 16.7564 9.8442 16.719 9.8442 16.6766C9.8442 16.6348 9.83811 16.5981 9.82593 16.5667C9.81376 16.535 9.79574 16.5104 9.77187 16.4929C9.74801 16.4751 9.71855 16.4662 9.68348 16.4662C9.64696 16.4662 9.61652 16.4756 9.59217 16.4944C9.56806 16.5129 9.54992 16.5381 9.53774 16.57C9.52581 16.6016 9.51984 16.6372 9.51984 16.6766C9.51984 16.7166 9.52593 16.7529 9.53811 16.7855C9.55053 16.8179 9.56879 16.8437 9.5929 16.8629C9.61725 16.8819 9.64744 16.8914 9.68348 16.8914ZM10.334 16.9688C10.28 16.9688 10.2333 16.9569 10.1941 16.933C10.1552 16.9089 10.1251 16.8753 10.1039 16.8322C10.083 16.7889 10.0725 16.7385 10.0725 16.681C10.0725 16.6235 10.083 16.5729 10.1039 16.5291C10.1251 16.485 10.1545 16.4507 10.1923 16.4261C10.2303 16.4012 10.2746 16.3888 10.3252 16.3888C10.3545 16.3888 10.3833 16.3937 10.4118 16.4034C10.4403 16.4132 10.4662 16.429 10.4896 16.4509C10.513 16.4726 10.5316 16.5013 10.5455 16.5371C10.5594 16.5729 10.5663 16.617 10.5663 16.6693V16.7059H10.1338V16.6313H10.4787C10.4787 16.5997 10.4723 16.5714 10.4597 16.5466C10.4472 16.5218 10.4295 16.5022 10.4063 16.4878C10.3834 16.4734 10.3564 16.4662 10.3252 16.4662C10.2909 16.4662 10.2612 16.4748 10.2361 16.4918C10.2113 16.5086 10.1922 16.5305 10.1788 16.5576C10.1654 16.5846 10.1587 16.6136 10.1587 16.6445V16.6942C10.1587 16.7365 10.166 16.7725 10.1806 16.8019C10.1955 16.8311 10.216 16.8534 10.2423 16.8688C10.2686 16.8839 10.2992 16.8914 10.334 16.8914C10.3567 16.8914 10.3771 16.8882 10.3954 16.8819C10.4139 16.8753 10.4298 16.8656 10.4432 16.8527C10.4566 16.8395 10.467 16.8232 10.4743 16.8037L10.5575 16.8271C10.5488 16.8554 10.534 16.8802 10.5134 16.9016C10.4927 16.9228 10.4671 16.9394 10.4366 16.9513C10.4062 16.963 10.372 16.9688 10.334 16.9688ZM10.7836 16.6197V16.9572H10.6974V16.3961H10.7807V16.4838H10.788C10.8012 16.4553 10.8211 16.4324 10.8479 16.4151C10.8747 16.3976 10.9093 16.3888 10.9517 16.3888C10.9896 16.3888 11.0229 16.3966 11.0514 16.4122C11.0799 16.4275 11.102 16.4509 11.1179 16.4823C11.1337 16.5135 11.1416 16.5529 11.1416 16.6007V16.9572H11.0554V16.6065C11.0554 16.5624 11.044 16.5281 11.0211 16.5035C10.9982 16.4787 10.9668 16.4662 10.9268 16.4662C10.8993 16.4662 10.8747 16.4722 10.853 16.4841C10.8316 16.4961 10.8147 16.5135 10.8023 16.5364C10.7899 16.5593 10.7836 16.587 10.7836 16.6197ZM11.8003 16.9674C11.7511 16.9674 11.7087 16.9584 11.6731 16.9404C11.6376 16.9223 11.6102 16.8976 11.591 16.8662C11.5717 16.8348 11.5621 16.7989 11.5621 16.7585C11.5621 16.7273 11.5687 16.6996 11.5818 16.6755C11.5952 16.6512 11.6136 16.6287 11.637 16.608C11.6606 16.587 11.6878 16.5661 11.7184 16.5451L11.8266 16.4648C11.8477 16.4509 11.8647 16.436 11.8773 16.4202C11.8902 16.4044 11.8967 16.3837 11.8967 16.3581C11.8967 16.3391 11.8883 16.3207 11.8715 16.303C11.8549 16.2852 11.8331 16.2763 11.8061 16.2763C11.7871 16.2763 11.7703 16.2812 11.7557 16.2909C11.7413 16.3004 11.73 16.3126 11.7217 16.3274C11.7137 16.3421 11.7097 16.3572 11.7097 16.3727C11.7097 16.3903 11.7144 16.408 11.7239 16.4261C11.7337 16.4438 11.746 16.4621 11.7608 16.4809C11.7759 16.4994 11.7915 16.5184 11.8076 16.5378L12.1509 16.9572H12.0472L11.7637 16.6153C11.7374 16.5836 11.7136 16.5549 11.6921 16.5291C11.6707 16.5033 11.6537 16.4778 11.641 16.4527C11.6283 16.4276 11.622 16.4005 11.622 16.3713C11.622 16.3377 11.6294 16.3082 11.6443 16.2829C11.6594 16.2573 11.6804 16.2375 11.7075 16.2233C11.7347 16.209 11.7666 16.2018 11.8032 16.2018C11.8407 16.2018 11.8729 16.2091 11.9 16.2237C11.927 16.2381 11.9478 16.2572 11.9624 16.2811C11.977 16.3047 11.9843 16.3304 11.9843 16.3581C11.9843 16.3939 11.9755 16.425 11.9577 16.4513C11.9399 16.4776 11.9157 16.502 11.885 16.5247L11.736 16.6357C11.7024 16.6606 11.6796 16.6847 11.6677 16.708C11.6557 16.7314 11.6498 16.7482 11.6498 16.7585C11.6498 16.7818 11.6559 16.8036 11.668 16.8238C11.6802 16.844 11.6974 16.8604 11.7195 16.8728C11.7417 16.8852 11.7676 16.8914 11.7973 16.8914C11.8256 16.8914 11.8531 16.8854 11.8799 16.8735C11.9067 16.8613 11.9309 16.8438 11.9526 16.8209C11.9745 16.798 11.9918 16.7705 12.0044 16.7384C12.0173 16.7062 12.0238 16.6701 12.0238 16.6299H12.1071C12.1071 16.6796 12.1013 16.7201 12.0899 16.7515C12.0785 16.7829 12.0656 16.8075 12.0512 16.8253C12.0368 16.8431 12.0253 16.8563 12.0165 16.8651C12.0136 16.8688 12.0109 16.8724 12.0085 16.8761C12.006 16.8797 12.0033 16.8834 12.0004 16.887C11.9763 16.9141 11.9459 16.9343 11.9091 16.9477C11.8723 16.9608 11.836 16.9674 11.8003 16.9674ZM12.5473 16.9572V16.2091H12.9958V16.2895H12.6379V16.5422H12.9622V16.6226H12.6379V16.9572H12.5473ZM13.2255 16.2091V16.9572H13.1393V16.2091H13.2255ZM13.6113 16.9688C13.5607 16.9688 13.5162 16.9568 13.478 16.9327C13.44 16.9086 13.4103 16.8748 13.3889 16.8315C13.3677 16.7882 13.3571 16.7375 13.3571 16.6796C13.3571 16.6211 13.3677 16.5701 13.3889 16.5265C13.4103 16.4829 13.44 16.4491 13.478 16.425C13.5162 16.4009 13.5607 16.3888 13.6113 16.3888C13.662 16.3888 13.7063 16.4009 13.7443 16.425C13.7825 16.4491 13.8122 16.4829 13.8334 16.5265C13.8548 16.5701 13.8655 16.6211 13.8655 16.6796C13.8655 16.7375 13.8548 16.7882 13.8334 16.8315C13.8122 16.8748 13.7825 16.9086 13.7443 16.9327C13.7063 16.9568 13.662 16.9688 13.6113 16.9688ZM13.6113 16.8914C13.6498 16.8914 13.6814 16.8815 13.7063 16.8618C13.7311 16.8421 13.7495 16.8162 13.7614 16.784C13.7734 16.7519 13.7793 16.7171 13.7793 16.6796C13.7793 16.6421 13.7734 16.6071 13.7614 16.5747C13.7495 16.5423 13.7311 16.5162 13.7063 16.4962C13.6814 16.4762 13.6498 16.4662 13.6113 16.4662C13.5728 16.4662 13.5412 16.4762 13.5163 16.4962C13.4915 16.5162 13.4731 16.5423 13.4612 16.5747C13.4492 16.6071 13.4433 16.6421 13.4433 16.6796C13.4433 16.7171 13.4492 16.7519 13.4612 16.784C13.4731 16.8162 13.4915 16.8421 13.5163 16.8618C13.5412 16.8815 13.5728 16.8914 13.6113 16.8914ZM14.1051 16.9572L13.9342 16.3961H14.0248L14.146 16.8257H14.1519L14.2717 16.3961H14.3637L14.4821 16.8242H14.4879L14.6092 16.3961H14.6998L14.5288 16.9572H14.4441L14.3214 16.5261H14.3126L14.1899 16.9572H14.1051ZM15.0299 16.9688C14.9758 16.9688 14.9292 16.9569 14.89 16.933C14.851 16.9089 14.821 16.8753 14.7998 16.8322C14.7788 16.7889 14.7684 16.7385 14.7684 16.681C14.7684 16.6235 14.7788 16.5729 14.7998 16.5291C14.821 16.485 14.8504 16.4507 14.8882 16.4261C14.9261 16.4012 14.9705 16.3888 15.0211 16.3888C15.0503 16.3888 15.0792 16.3937 15.1077 16.4034C15.1362 16.4132 15.1621 16.429 15.1855 16.4509C15.2089 16.4726 15.2275 16.5013 15.2414 16.5371C15.2552 16.5729 15.2622 16.617 15.2622 16.6693V16.7059H14.8297V16.6313H15.1745C15.1745 16.5997 15.1682 16.5714 15.1555 16.5466C15.1431 16.5218 15.1253 16.5022 15.1022 16.4878C15.0793 16.4734 15.0523 16.4662 15.0211 16.4662C14.9868 16.4662 14.9571 16.4748 14.932 16.4918C14.9072 16.5086 14.888 16.5305 14.8746 16.5576C14.8613 16.5846 14.8546 16.6136 14.8546 16.6445V16.6942C14.8546 16.7365 14.8619 16.7725 14.8765 16.8019C14.8913 16.8311 14.9119 16.8534 14.9382 16.8688C14.9645 16.8839 14.9951 16.8914 15.0299 16.8914C15.0525 16.8914 15.073 16.8882 15.0912 16.8819C15.1097 16.8753 15.1257 16.8656 15.1391 16.8527C15.1525 16.8395 15.1628 16.8232 15.1701 16.8037L15.2534 16.8271C15.2447 16.8554 15.2299 16.8802 15.2092 16.9016C15.1885 16.9228 15.163 16.9394 15.1325 16.9513C15.1021 16.963 15.0679 16.9688 15.0299 16.9688ZM15.3933 16.9572V16.3961H15.4766V16.4809H15.4824C15.4927 16.4531 15.5112 16.4306 15.538 16.4133C15.5647 16.396 15.5949 16.3873 15.6285 16.3873C15.6349 16.3873 15.6428 16.3875 15.6523 16.3877C15.6618 16.388 15.669 16.3883 15.6738 16.3888V16.4765C15.6709 16.4757 15.6642 16.4746 15.6537 16.4732C15.6435 16.4715 15.6327 16.4706 15.6212 16.4706C15.594 16.4706 15.5696 16.4763 15.5482 16.4878C15.527 16.499 15.5102 16.5146 15.4978 16.5345C15.4856 16.5543 15.4795 16.5768 15.4795 16.6021V16.9572H15.3933ZM16.1734 16.5218L16.096 16.5437C16.0911 16.5308 16.0839 16.5182 16.0744 16.5061C16.0652 16.4936 16.0525 16.4834 16.0364 16.4754C16.0204 16.4673 15.9998 16.4633 15.9747 16.4633C15.9404 16.4633 15.9118 16.4712 15.8889 16.4871C15.8662 16.5026 15.8549 16.5225 15.8549 16.5466C15.8549 16.568 15.8627 16.585 15.8783 16.5974C15.8939 16.6098 15.9182 16.6201 15.9513 16.6284L16.0346 16.6489C16.0848 16.661 16.1222 16.6797 16.1468 16.7048C16.1713 16.7296 16.1836 16.7616 16.1836 16.8008C16.1836 16.833 16.1744 16.8617 16.1559 16.887C16.1376 16.9123 16.1121 16.9323 16.0792 16.9469C16.0463 16.9615 16.0081 16.9688 15.9645 16.9688C15.9073 16.9688 15.8599 16.9564 15.8224 16.9316C15.7849 16.9067 15.7612 16.8705 15.7512 16.8227L15.833 16.8023C15.8408 16.8325 15.8555 16.8551 15.8772 16.8702C15.8991 16.8853 15.9277 16.8929 15.963 16.8929C16.0032 16.8929 16.0351 16.8843 16.0587 16.8673C16.0826 16.85 16.0945 16.8293 16.0945 16.8052C16.0945 16.7857 16.0877 16.7694 16.0741 16.7563C16.0604 16.7429 16.0395 16.7329 16.0112 16.7263L15.9177 16.7044C15.8664 16.6922 15.8286 16.6733 15.8045 16.6478C15.7806 16.622 15.7687 16.5897 15.7687 16.551C15.7687 16.5193 15.7776 16.4913 15.7954 16.467C15.8134 16.4426 15.8379 16.4235 15.8688 16.4096C15.9 16.3957 15.9353 16.3888 15.9747 16.3888C16.0302 16.3888 16.0738 16.401 16.1055 16.4253C16.1374 16.4497 16.16 16.4818 16.1734 16.5218Z" fill="#437D43"/>
<defs>
<clipPath id="clip0_2_85">
<rect width="9.94286" height="9.94286" fill="white" transform="translate(7.20001 5.82855)"/>
</clipPath>
</defs>
</svg>
