<svg width="70" height="70" viewBox="0 0 70 70" fill="none" xmlns="http://www.w3.org/2000/svg">
<circle cx="34.9999" cy="35" r="24" stroke="#345959" stroke-width="2"/>
<path d="M39.875 28.5374C39.6375 25.0499 38.225 21.6499 35.575 18.9999C33.0117 21.5536 31.4352 24.9324 31.125 28.5374C32.7375 29.3874 34.2125 30.4874 35.5 31.8249C36.7799 30.5098 38.2557 29.4008 39.875 28.5374ZM35.5 35.8124C32.8125 31.7124 28.225 28.9999 23 28.9999C23 41.4999 34.65 43.8624 35.5 43.9999C36.35 43.8499 48 41.4999 48 28.9999C42.775 28.9999 38.1875 31.7124 35.5 35.8124Z" fill="#224040"/>
<path d="M24.177 47.5149C24.1592 47.4574 24.1347 47.4059 24.1035 47.3605C24.0729 47.3143 24.036 47.2749 23.9927 47.2422C23.9501 47.2095 23.901 47.185 23.8456 47.1687C23.7903 47.1517 23.7299 47.1431 23.6645 47.1431C23.5474 47.1431 23.4429 47.1726 23.3513 47.2316C23.2597 47.2905 23.1876 47.3772 23.1351 47.4915C23.0832 47.6051 23.0573 47.7436 23.0573 47.907C23.0573 48.0718 23.0832 48.2113 23.1351 48.3257C23.1869 48.44 23.259 48.527 23.3513 48.5867C23.4437 48.6456 23.5509 48.6751 23.6731 48.6751C23.7839 48.6751 23.8797 48.6538 23.9607 48.6112C24.0424 48.5686 24.1052 48.5082 24.1493 48.4301C24.1933 48.3512 24.2153 48.2589 24.2153 48.1531L24.3048 48.1669H23.7125V47.858H24.5978V48.1201C24.5978 48.3068 24.558 48.4684 24.4785 48.6048C24.3989 48.7412 24.2895 48.8463 24.1503 48.9201C24.0111 48.9933 23.8513 49.0299 23.6709 49.0299C23.4699 49.0299 23.2934 48.9848 23.1415 48.8946C22.9902 48.8037 22.8719 48.6747 22.7867 48.5078C22.7022 48.3402 22.6599 48.1414 22.6599 47.9113C22.6599 47.7351 22.6848 47.5778 22.7345 47.4393C22.7849 47.3008 22.8552 47.1833 22.9454 47.0867C23.0356 46.9894 23.1415 46.9155 23.2629 46.8651C23.3844 46.814 23.5165 46.7884 23.6592 46.7884C23.78 46.7884 23.8925 46.8061 23.9969 46.8416C24.1013 46.8765 24.194 46.9262 24.275 46.9908C24.3567 47.0554 24.4238 47.1321 24.4763 47.2209C24.5289 47.3097 24.5633 47.4077 24.5797 47.5149H24.177ZM25.4338 49.0331C25.3301 49.0331 25.2367 49.0146 25.1536 48.9777C25.0712 48.94 25.0059 48.8846 24.9576 48.8115C24.91 48.7383 24.8862 48.6481 24.8862 48.5409C24.8862 48.4485 24.9033 48.3722 24.9374 48.3118C24.9714 48.2515 25.018 48.2032 25.0769 48.1669C25.1359 48.1307 25.2023 48.1034 25.2761 48.0849C25.3507 48.0657 25.4278 48.0519 25.5073 48.0434C25.6032 48.0334 25.681 48.0245 25.7406 48.0167C25.8003 48.0082 25.8436 47.9954 25.8706 47.9784C25.8983 47.9606 25.9121 47.9333 25.9121 47.8963V47.8899C25.9121 47.8097 25.8884 47.7475 25.8408 47.7035C25.7932 47.6595 25.7246 47.6375 25.6352 47.6375C25.5407 47.6375 25.4658 47.6581 25.4104 47.6992C25.3557 47.7404 25.3187 47.7891 25.2996 47.8452L24.9395 47.7941C24.9679 47.6946 25.0148 47.6115 25.0801 47.5448C25.1455 47.4773 25.2254 47.4269 25.3198 47.3935C25.4143 47.3594 25.5187 47.3424 25.633 47.3424C25.7119 47.3424 25.7903 47.3516 25.8685 47.3701C25.9466 47.3885 26.018 47.4191 26.0826 47.4617C26.1472 47.5036 26.1991 47.5608 26.2381 47.6332C26.2779 47.7056 26.2978 47.7962 26.2978 47.9049V49H25.9271V48.7752H25.9143C25.8908 48.8207 25.8578 48.8633 25.8152 48.9031C25.7733 48.9421 25.7204 48.9738 25.6565 48.9979C25.5933 49.0213 25.519 49.0331 25.4338 49.0331ZM25.5339 48.7497C25.6114 48.7497 25.6785 48.7344 25.7353 48.7039C25.7921 48.6726 25.8358 48.6314 25.8663 48.5803C25.8976 48.5291 25.9132 48.4734 25.9132 48.413V48.2202C25.9011 48.2301 25.8805 48.2394 25.8514 48.2479C25.823 48.2564 25.791 48.2639 25.7555 48.2703C25.72 48.2767 25.6849 48.2823 25.6501 48.2873C25.6153 48.2923 25.5851 48.2966 25.5595 48.3001C25.502 48.3079 25.4505 48.3207 25.405 48.3385C25.3596 48.3562 25.3237 48.3811 25.2974 48.413C25.2712 48.4443 25.258 48.4848 25.258 48.5345C25.258 48.6055 25.2839 48.6591 25.3358 48.6953C25.3876 48.7316 25.4537 48.7497 25.5339 48.7497ZM26.6856 49V47.3637H27.0595V47.6364H27.0766C27.1064 47.5419 27.1575 47.4691 27.23 47.418C27.3031 47.3662 27.3866 47.3402 27.4803 47.3402C27.5016 47.3402 27.5254 47.3413 27.5517 47.3434C27.5787 47.3448 27.6011 47.3473 27.6188 47.3509V47.7056C27.6025 47.7 27.5766 47.695 27.541 47.6907C27.5062 47.6858 27.4725 47.6833 27.4398 47.6833C27.3695 47.6833 27.3063 47.6985 27.2502 47.7291C27.1948 47.7589 27.1511 47.8005 27.1192 47.8537C27.0872 47.907 27.0712 47.9684 27.0712 48.038V49H26.6856ZM28.4149 49.0288C28.2863 49.0288 28.1713 48.9958 28.0697 48.9297C27.9682 48.8637 27.8879 48.7678 27.829 48.6421C27.77 48.5164 27.7405 48.3637 27.7405 48.184C27.7405 48.0022 27.7704 47.8488 27.83 47.7238C27.8904 47.598 27.9717 47.5032 28.074 47.4393C28.1763 47.3747 28.2903 47.3424 28.416 47.3424C28.5118 47.3424 28.5907 47.3587 28.6525 47.3914C28.7143 47.4233 28.7633 47.462 28.7995 47.5075C28.8357 47.5522 28.8638 47.5945 28.8836 47.6343H28.8996V46.8182H29.2863V49H28.9071V48.7422H28.8836C28.8638 48.782 28.835 48.8242 28.7974 48.869C28.7597 48.913 28.71 48.9507 28.6482 48.9819C28.5864 49.0132 28.5086 49.0288 28.4149 49.0288ZM28.5225 48.7124C28.6042 48.7124 28.6738 48.6904 28.7313 48.6463C28.7888 48.6016 28.8325 48.5394 28.8623 48.4599C28.8922 48.3804 28.9071 48.2877 28.9071 48.1818C28.9071 48.076 28.8922 47.9841 28.8623 47.9059C28.8332 47.8278 28.7899 47.7671 28.7324 47.7238C28.6755 47.6804 28.6056 47.6588 28.5225 47.6588C28.4366 47.6588 28.3648 47.6811 28.3073 47.7259C28.2498 47.7706 28.2064 47.8324 28.1773 47.9113C28.1482 47.9901 28.1336 48.0803 28.1336 48.1818C28.1336 48.2841 28.1482 48.3754 28.1773 48.4556C28.2072 48.5352 28.2508 48.598 28.3084 48.6442C28.3666 48.6897 28.438 48.7124 28.5225 48.7124ZM30.4217 49.032C30.2577 49.032 30.116 48.9979 29.9967 48.9297C29.8781 48.8608 29.7868 48.7635 29.7229 48.6378C29.6589 48.5114 29.627 48.3626 29.627 48.1914C29.627 48.0231 29.6589 47.8754 29.7229 47.7483C29.7875 47.6204 29.8777 47.521 29.9935 47.45C30.1092 47.3782 30.2452 47.3424 30.4015 47.3424C30.5023 47.3424 30.5975 47.3587 30.687 47.3914C30.7772 47.4233 30.8567 47.473 30.9256 47.5405C30.9952 47.608 31.0499 47.6939 31.0897 47.7983C31.1295 47.902 31.1494 48.0256 31.1494 48.1691V48.2873H29.8081V48.0274H30.7797C30.779 47.9535 30.763 47.8878 30.7317 47.8303C30.7005 47.772 30.6568 47.7262 30.6007 47.6929C30.5453 47.6595 30.4807 47.6428 30.4068 47.6428C30.328 47.6428 30.2587 47.662 30.1991 47.7003C30.1394 47.738 30.0929 47.7877 30.0595 47.8495C30.0268 47.9105 30.0102 47.9777 30.0094 48.0508V48.2777C30.0094 48.3729 30.0268 48.4546 30.0616 48.5228C30.0964 48.5902 30.1451 48.6421 30.2076 48.6783C30.2701 48.7138 30.3433 48.7316 30.4271 48.7316C30.4832 48.7316 30.5339 48.7238 30.5794 48.7081C30.6249 48.6918 30.6643 48.668 30.6977 48.6367C30.731 48.6055 30.7562 48.5668 30.7733 48.5206L31.1334 48.5611C31.1107 48.6563 31.0673 48.7394 31.0034 48.8104C30.9402 48.8807 30.8592 48.9354 30.7605 48.9745C30.6618 49.0128 30.5489 49.032 30.4217 49.032ZM31.8613 48.0412V49H31.4756V47.3637H31.8442V47.6417H31.8634C31.901 47.5501 31.9611 47.4773 32.0434 47.4233C32.1265 47.3693 32.2292 47.3424 32.3513 47.3424C32.4643 47.3424 32.5626 47.3665 32.6464 47.4148C32.7309 47.4631 32.7963 47.5331 32.8425 47.6247C32.8893 47.7163 32.9124 47.8274 32.9117 47.9581V49H32.526V48.0178C32.526 47.9084 32.4976 47.8228 32.4408 47.761C32.3847 47.6992 32.3069 47.6684 32.2075 47.6684C32.14 47.6684 32.08 47.6833 32.0275 47.7131C31.9756 47.7422 31.9348 47.7845 31.905 47.8399C31.8758 47.8953 31.8613 47.9624 31.8613 48.0412ZM34.6999 49.032C34.5507 49.032 34.4225 49.005 34.3153 48.951C34.208 48.897 34.1253 48.8242 34.0671 48.7326C34.0095 48.6403 33.9808 48.5363 33.9808 48.4205C33.9808 48.3331 33.9985 48.2557 34.034 48.1882C34.0703 48.1208 34.12 48.0583 34.1832 48.0007C34.2471 47.9432 34.321 47.886 34.4048 47.8292L34.7915 47.5661C34.8483 47.5291 34.8913 47.4901 34.9204 47.4489C34.9502 47.4077 34.9651 47.3594 34.9651 47.304C34.9651 47.2571 34.9453 47.2127 34.9055 47.1708C34.8664 47.1289 34.8124 47.108 34.7436 47.108C34.6974 47.108 34.6566 47.119 34.621 47.141C34.5862 47.1623 34.5589 47.1904 34.539 47.2252C34.5198 47.26 34.5102 47.2969 34.5102 47.336C34.5102 47.3836 34.5234 47.4318 34.5497 47.4809C34.5767 47.5299 34.6115 47.5806 34.6541 47.6332C34.6974 47.6858 34.7436 47.7415 34.7926 47.8005L35.8164 49H35.3987L34.5486 48.0263C34.4854 47.9524 34.4243 47.8796 34.3654 47.8079C34.3071 47.7362 34.2592 47.6616 34.2215 47.5842C34.1846 47.5061 34.1661 47.4216 34.1661 47.3306C34.1661 47.2277 34.1899 47.1357 34.2375 47.0547C34.2851 46.973 34.3515 46.9088 34.4367 46.8619C34.5227 46.815 34.6232 46.7916 34.7382 46.7916C34.8533 46.7916 34.952 46.8143 35.0344 46.8598C35.1168 46.9052 35.1803 46.9656 35.2251 47.0409C35.2698 47.1162 35.2922 47.1982 35.2922 47.287C35.2922 47.3899 35.2666 47.4823 35.2155 47.564C35.1644 47.6449 35.0933 47.7184 35.0024 47.7845L34.5614 48.1073C34.4889 48.1598 34.4371 48.2131 34.4058 48.2671C34.3746 48.3203 34.359 48.3658 34.359 48.4034C34.359 48.461 34.3735 48.5132 34.4026 48.56C34.4318 48.6069 34.4726 48.6446 34.5252 48.673C34.5784 48.7007 34.6406 48.7145 34.7116 48.7145C34.7897 48.7145 34.8668 48.6971 34.9428 48.6623C35.0188 48.6268 35.088 48.5764 35.1505 48.511C35.213 48.4457 35.2627 48.3676 35.2997 48.2767C35.3366 48.185 35.3551 48.0835 35.3551 47.972H35.6864C35.6864 48.1098 35.6711 48.2298 35.6406 48.3321C35.61 48.4336 35.5706 48.5196 35.5223 48.5899C35.474 48.6595 35.4229 48.7152 35.3689 48.7571C35.3519 48.7692 35.3355 48.7813 35.3199 48.7934C35.3043 48.8054 35.2879 48.8175 35.2709 48.8296C35.1942 48.8992 35.1044 48.9503 35.0014 48.983C34.8991 49.0157 34.7986 49.032 34.6999 49.032ZM36.7983 49V46.8182H38.1961V47.1495H37.1936V47.7419H38.1002V48.0732H37.1936V49H36.7983ZM38.9248 46.8182V49H38.5391V46.8182H38.9248ZM40.0351 49.032C39.8753 49.032 39.7368 48.9968 39.6196 48.9265C39.5024 48.8562 39.4115 48.7578 39.3469 48.6314C39.283 48.505 39.251 48.3573 39.251 48.1882C39.251 48.0192 39.283 47.8711 39.3469 47.744C39.4115 47.6169 39.5024 47.5181 39.6196 47.4478C39.7368 47.3775 39.8753 47.3424 40.0351 47.3424C40.1949 47.3424 40.3334 47.3775 40.4506 47.4478C40.5678 47.5181 40.6583 47.6169 40.7222 47.744C40.7869 47.8711 40.8192 48.0192 40.8192 48.1882C40.8192 48.3573 40.7869 48.505 40.7222 48.6314C40.6583 48.7578 40.5678 48.8562 40.4506 48.9265C40.3334 48.9968 40.1949 49.032 40.0351 49.032ZM40.0372 48.723C40.1239 48.723 40.1963 48.6992 40.2546 48.6517C40.3128 48.6034 40.3561 48.5387 40.3845 48.4578C40.4137 48.3768 40.4282 48.2866 40.4282 48.1872C40.4282 48.087 40.4137 47.9965 40.3845 47.9155C40.3561 47.8338 40.3128 47.7689 40.2546 47.7206C40.1963 47.6723 40.1239 47.6481 40.0372 47.6481C39.9485 47.6481 39.8746 47.6723 39.8156 47.7206C39.7574 47.7689 39.7137 47.8338 39.6846 47.9155C39.6562 47.9965 39.642 48.087 39.642 48.1872C39.642 48.2866 39.6562 48.3768 39.6846 48.4578C39.7137 48.5387 39.7574 48.6034 39.8156 48.6517C39.8746 48.6992 39.9485 48.723 40.0372 48.723ZM41.4374 49L40.975 47.3637H41.3681L41.6558 48.5142H41.6707L41.9647 47.3637H42.3536L42.6476 48.5078H42.6636L42.9469 47.3637H43.3411L42.8777 49H42.4761L42.1692 47.8942H42.1469L41.8401 49H41.4374ZM44.2879 49.032C44.1239 49.032 43.9822 48.9979 43.8629 48.9297C43.7443 48.8608 43.653 48.7635 43.5891 48.6378C43.5252 48.5114 43.4932 48.3626 43.4932 48.1914C43.4932 48.0231 43.5252 47.8754 43.5891 47.7483C43.6537 47.6204 43.7439 47.521 43.8597 47.45C43.9754 47.3782 44.1115 47.3424 44.2677 47.3424C44.3686 47.3424 44.4637 47.3587 44.5532 47.3914C44.6434 47.4233 44.723 47.473 44.7919 47.5405C44.8615 47.608 44.9161 47.6939 44.9559 47.7983C44.9957 47.902 45.0156 48.0256 45.0156 48.1691V48.2873H43.6743V48.0274H44.6459C44.6452 47.9535 44.6292 47.8878 44.598 47.8303C44.5667 47.772 44.523 47.7262 44.4669 47.6929C44.4115 47.6595 44.3469 47.6428 44.273 47.6428C44.1942 47.6428 44.1249 47.662 44.0653 47.7003C44.0056 47.738 43.9591 47.7877 43.9257 47.8495C43.8931 47.9105 43.8764 47.9777 43.8757 48.0508V48.2777C43.8757 48.3729 43.8931 48.4546 43.9279 48.5228C43.9627 48.5902 44.0113 48.6421 44.0738 48.6783C44.1363 48.7138 44.2095 48.7316 44.2933 48.7316C44.3494 48.7316 44.4002 48.7238 44.4456 48.7081C44.4911 48.6918 44.5305 48.668 44.5639 48.6367C44.5972 48.6055 44.6225 48.5668 44.6395 48.5206L44.9996 48.5611C44.9769 48.6563 44.9335 48.7394 44.8696 48.8104C44.8064 48.8807 44.7254 48.9354 44.6267 48.9745C44.528 49.0128 44.4151 49.032 44.2879 49.032ZM45.3418 49V47.3637H45.7158V47.6364H45.7328C45.7626 47.5419 45.8138 47.4691 45.8862 47.418C45.9594 47.3662 46.0428 47.3402 46.1366 47.3402C46.1579 47.3402 46.1817 47.3413 46.208 47.3434C46.2349 47.3448 46.2573 47.3473 46.2751 47.3509V47.7056C46.2587 47.7 46.2328 47.695 46.1973 47.6907C46.1625 47.6858 46.1288 47.6833 46.0961 47.6833C46.0258 47.6833 45.9626 47.6985 45.9065 47.7291C45.8511 47.7589 45.8074 47.8005 45.7754 47.8537C45.7435 47.907 45.7275 47.9684 45.7275 48.038V49H45.3418ZM47.8246 47.7962L47.473 47.8345C47.4631 47.799 47.4457 47.7657 47.4208 47.7344C47.3967 47.7032 47.364 47.6779 47.3228 47.6588C47.2816 47.6396 47.2312 47.63 47.1716 47.63C47.0913 47.63 47.0238 47.6474 46.9691 47.6822C46.9152 47.717 46.8885 47.7621 46.8892 47.8175C46.8885 47.8651 46.9059 47.9038 46.9414 47.9336C46.9777 47.9635 47.0373 47.988 47.1204 48.0071L47.3995 48.0668C47.5544 48.1002 47.6694 48.1531 47.7447 48.2255C47.8207 48.298 47.8591 48.3928 47.8598 48.51C47.8591 48.613 47.8289 48.7039 47.7692 48.7827C47.7103 48.8608 47.6282 48.9219 47.5231 48.9659C47.418 49.01 47.2973 49.032 47.1609 49.032C46.9606 49.032 46.7994 48.9901 46.6772 48.9063C46.5551 48.8218 46.4823 48.7042 46.4588 48.5537L46.8349 48.5174C46.852 48.5913 46.8882 48.647 46.9436 48.6847C46.999 48.7223 47.0711 48.7412 47.1598 48.7412C47.2515 48.7412 47.325 48.7223 47.3804 48.6847C47.4365 48.647 47.4645 48.6005 47.4645 48.5451C47.4645 48.4983 47.4464 48.4595 47.4102 48.429C47.3747 48.3985 47.3193 48.375 47.244 48.3587L46.9649 48.3001C46.8079 48.2674 46.6918 48.2124 46.6165 48.135C46.5412 48.0568 46.5039 47.9581 46.5047 47.8388C46.5039 47.738 46.5313 47.6506 46.5867 47.5767C46.6428 47.5022 46.7206 47.4446 46.82 47.4041C46.9201 47.363 47.0355 47.3424 47.1662 47.3424C47.358 47.3424 47.5089 47.3832 47.619 47.4649C47.7298 47.5466 47.7983 47.657 47.8246 47.7962Z" fill="#224040"/>
</svg>
