<svg width="70" height="70" viewBox="0 0 70 70" fill="none" xmlns="http://www.w3.org/2000/svg">
<circle cx="35" cy="35" r="24" stroke="#437D43" stroke-width="2"/>
<path d="M39.875 28.5375C39.6375 25.05 38.225 21.65 35.575 19C33.0117 21.5537 31.4352 24.9325 31.125 28.5375C32.7375 29.3875 34.2125 30.4875 35.5 31.825C36.7799 30.5099 38.2557 29.4009 39.875 28.5375ZM35.5 35.8125C32.8125 31.7125 28.225 29 23 29C23 41.5 34.65 43.8625 35.5 44C36.35 43.85 48 41.5 48 29C42.775 29 38.1875 31.7125 35.5 35.8125Z" fill="#67125E"/>
<path d="M24.7557 47.5C24.7322 47.4283 24.7013 47.364 24.663 47.3072C24.6254 47.2496 24.5803 47.2006 24.5277 47.1602C24.4759 47.1197 24.4169 47.0888 24.3509 47.0675C24.2848 47.0462 24.2124 47.0355 24.1335 47.0355C24.0043 47.0355 23.8867 47.0689 23.7809 47.1357C23.6751 47.2024 23.5909 47.3008 23.5284 47.4308C23.4659 47.5607 23.4347 47.7202 23.4347 47.9091C23.4347 48.098 23.4663 48.2575 23.5295 48.3874C23.5927 48.5174 23.6783 48.6158 23.7862 48.6825C23.8942 48.7493 24.0156 48.7827 24.1506 48.7827C24.2756 48.7827 24.3857 48.756 24.4808 48.7028C24.5767 48.6488 24.6513 48.5728 24.7045 48.4748C24.7585 48.3761 24.7855 48.2599 24.7855 48.1264L24.8665 48.1435H24.2102V47.9091H25.0412V48.1435C25.0412 48.3232 25.0028 48.4794 24.9261 48.6122C24.8501 48.745 24.745 48.848 24.6108 48.9212C24.4773 48.9936 24.3239 49.0298 24.1506 49.0298C23.9574 49.0298 23.7876 48.9844 23.6413 48.8935C23.4957 48.8026 23.3821 48.6733 23.3004 48.5057C23.2195 48.3381 23.179 48.1392 23.179 47.9091C23.179 47.7365 23.2021 47.5813 23.2482 47.4435C23.2951 47.305 23.3612 47.1871 23.4464 47.0898C23.5316 46.9925 23.6325 46.918 23.7489 46.8661C23.8654 46.8143 23.9936 46.7884 24.1335 46.7884C24.2486 46.7884 24.3558 46.8058 24.4553 46.8406C24.5554 46.8746 24.6445 46.9233 24.7227 46.9865C24.8015 47.049 24.8672 47.1239 24.9197 47.2113C24.9723 47.2979 25.0085 47.3942 25.0284 47.5H24.7557ZM25.9411 49.0384C25.8374 49.0384 25.7433 49.0188 25.6588 48.9798C25.5743 48.94 25.5072 48.8828 25.4575 48.8082C25.4078 48.733 25.3829 48.642 25.3829 48.5355C25.3829 48.4418 25.4014 48.3658 25.4383 48.3075C25.4752 48.2486 25.5246 48.2024 25.5864 48.169C25.6482 48.1357 25.7164 48.1108 25.7909 48.0945C25.8662 48.0774 25.9419 48.0639 26.0178 48.054C26.1173 48.0412 26.1979 48.0316 26.2597 48.0252C26.3222 48.0181 26.3676 48.0064 26.396 47.9901C26.4252 47.9737 26.4397 47.9453 26.4397 47.9048V47.8963C26.4397 47.7912 26.411 47.7095 26.3534 47.6513C26.2966 47.593 26.2103 47.5639 26.0945 47.5639C25.9745 47.5639 25.8804 47.5902 25.8122 47.6428C25.7441 47.6953 25.6961 47.7514 25.6684 47.8111L25.4298 47.7259C25.4724 47.6264 25.5292 47.549 25.6002 47.4936C25.672 47.4375 25.7501 47.3984 25.8346 47.3764C25.9198 47.3537 26.0036 47.3423 26.086 47.3423C26.1386 47.3423 26.199 47.3487 26.2671 47.3615C26.336 47.3736 26.4024 47.3988 26.4664 47.4371C26.531 47.4755 26.5846 47.5334 26.6272 47.6108C26.6698 47.6882 26.6911 47.7919 26.6911 47.9219V49H26.4397V48.7784H26.4269C26.4099 48.8139 26.3815 48.8519 26.3417 48.8924C26.3019 48.9329 26.249 48.9673 26.183 48.9957C26.1169 49.0241 26.0363 49.0384 25.9411 49.0384ZM25.9795 48.8125C26.0789 48.8125 26.1627 48.793 26.2309 48.7539C26.2998 48.7148 26.3517 48.6644 26.3865 48.6026C26.422 48.5408 26.4397 48.4759 26.4397 48.4077V48.1776C26.4291 48.1903 26.4056 48.2021 26.3694 48.2127C26.3339 48.2227 26.2927 48.2315 26.2458 48.2393C26.1997 48.2464 26.1546 48.2528 26.1105 48.2585C26.0672 48.2635 26.032 48.2678 26.0051 48.2713C25.9397 48.2798 25.8786 48.2937 25.8218 48.3129C25.7657 48.3313 25.7203 48.3594 25.6855 48.397C25.6514 48.4339 25.6343 48.4844 25.6343 48.5483C25.6343 48.6357 25.6666 48.7017 25.7313 48.7464C25.7966 48.7905 25.8794 48.8125 25.9795 48.8125ZM27.15 49V47.3636H27.3929V47.6108H27.41C27.4398 47.5298 27.4938 47.4641 27.5719 47.4137C27.65 47.3633 27.7381 47.3381 27.8361 47.3381C27.8546 47.3381 27.8777 47.3384 27.9054 47.3391C27.9331 47.3398 27.954 47.3409 27.9682 47.3423V47.598C27.9597 47.5959 27.9402 47.5927 27.9096 47.5884C27.8798 47.5835 27.8482 47.581 27.8148 47.581C27.7353 47.581 27.6642 47.5977 27.6017 47.631C27.54 47.6637 27.4909 47.7092 27.4547 47.7674C27.4192 47.8249 27.4015 47.8906 27.4015 47.9645V49H27.15ZM28.8343 49.0341C28.698 49.0341 28.5776 48.9996 28.4732 48.9308C28.3688 48.8612 28.2871 48.7631 28.2282 48.6367C28.1692 48.5096 28.1397 48.3594 28.1397 48.1861C28.1397 48.0142 28.1692 47.8651 28.2282 47.7386C28.2871 47.6122 28.3691 47.5146 28.4743 47.4457C28.5794 47.3768 28.7008 47.3423 28.8386 47.3423C28.9451 47.3423 29.0293 47.3601 29.0911 47.3956C29.1536 47.4304 29.2012 47.4702 29.2338 47.5149C29.2672 47.5589 29.2931 47.5952 29.3116 47.6236H29.3329V46.8182H29.5843V49H29.3414V48.7486H29.3116C29.2931 48.7784 29.2669 48.8161 29.2328 48.8615C29.1987 48.9062 29.15 48.9464 29.0868 48.9819C29.0236 49.0167 28.9395 49.0341 28.8343 49.0341ZM28.8684 48.8082C28.9693 48.8082 29.0545 48.782 29.1241 48.7294C29.1937 48.6761 29.2466 48.6026 29.2828 48.5089C29.3191 48.4144 29.3372 48.3054 29.3372 48.1818C29.3372 48.0597 29.3194 47.9528 29.2839 47.8612C29.2484 47.7688 29.1958 47.6971 29.1262 47.646C29.0566 47.5941 28.9707 47.5682 28.8684 47.5682C28.7619 47.5682 28.6731 47.5955 28.6021 47.6502C28.5318 47.7042 28.4789 47.7777 28.4434 47.8707C28.4086 47.9631 28.3912 48.0668 28.3912 48.1818C28.3912 48.2983 28.4089 48.4041 28.4444 48.4993C28.4806 48.5937 28.5339 48.669 28.6042 48.7251C28.6752 48.7805 28.7633 48.8082 28.8684 48.8082ZM30.7658 49.0341C30.6081 49.0341 30.4721 48.9993 30.3578 48.9297C30.2441 48.8594 30.1564 48.7614 30.0946 48.6357C30.0336 48.5092 30.003 48.3622 30.003 48.1946C30.003 48.027 30.0336 47.8793 30.0946 47.7514C30.1564 47.6229 30.2424 47.5227 30.3525 47.451C30.4632 47.3786 30.5925 47.3423 30.7402 47.3423C30.8255 47.3423 30.9096 47.3565 30.9927 47.3849C31.0758 47.4134 31.1515 47.4595 31.2196 47.5234C31.2878 47.5866 31.3422 47.6705 31.3826 47.7749C31.4231 47.8793 31.4434 48.0078 31.4434 48.1605V48.267H30.182V48.0497H31.1877C31.1877 47.9574 31.1692 47.875 31.1323 47.8026C31.0961 47.7301 31.0442 47.6729 30.9767 47.631C30.91 47.5891 30.8311 47.5682 30.7402 47.5682C30.6401 47.5682 30.5534 47.593 30.4803 47.6428C30.4078 47.6918 30.3521 47.7557 30.313 47.8345C30.274 47.9134 30.2544 47.9979 30.2544 48.0881V48.233C30.2544 48.3565 30.2757 48.4613 30.3184 48.5472C30.3617 48.6325 30.4217 48.6974 30.4984 48.7422C30.5751 48.7862 30.6642 48.8082 30.7658 48.8082C30.8319 48.8082 30.8915 48.799 30.9448 48.7805C30.9988 48.7614 31.0453 48.733 31.0843 48.6953C31.1234 48.657 31.1536 48.6094 31.1749 48.5526L31.4178 48.6207C31.3922 48.7031 31.3493 48.7756 31.2889 48.8381C31.2285 48.8999 31.1539 48.9482 31.0652 48.983C30.9764 49.017 30.8766 49.0341 30.7658 49.0341ZM32.0772 48.0156V49H31.8258V47.3636H32.0687V47.6193H32.09C32.1284 47.5362 32.1866 47.4695 32.2647 47.419C32.3429 47.3679 32.4437 47.3423 32.5673 47.3423C32.6781 47.3423 32.775 47.3651 32.8581 47.4105C32.9412 47.4553 33.0059 47.5234 33.052 47.6151C33.0982 47.706 33.1213 47.821 33.1213 47.9602V49H32.8699V47.9773C32.8699 47.8487 32.8365 47.7486 32.7697 47.6768C32.7029 47.6044 32.6113 47.5682 32.4949 47.5682C32.4146 47.5682 32.3429 47.5856 32.2797 47.6204C32.2172 47.6552 32.1678 47.706 32.1316 47.7727C32.0953 47.8395 32.0772 47.9205 32.0772 48.0156ZM35.0423 49.0298C34.8989 49.0298 34.7753 49.0036 34.6716 48.951C34.5679 48.8984 34.488 48.8263 34.4319 48.7347C34.3758 48.6431 34.3477 48.5384 34.3477 48.4205C34.3477 48.3295 34.3669 48.2489 34.4053 48.1786C34.4443 48.1076 34.498 48.0419 34.5661 47.9815C34.635 47.9205 34.7142 47.8594 34.8037 47.7983L35.1191 47.5639C35.1808 47.5234 35.2302 47.4801 35.2671 47.4339C35.3048 47.3878 35.3236 47.3274 35.3236 47.2528C35.3236 47.1974 35.2991 47.1438 35.2501 47.092C35.2018 47.0401 35.1382 47.0142 35.0594 47.0142C35.004 47.0142 34.955 47.0284 34.9124 47.0568C34.8705 47.0845 34.8374 47.12 34.8133 47.1634C34.7899 47.206 34.7781 47.25 34.7781 47.2955C34.7781 47.3466 34.792 47.3984 34.8197 47.451C34.8481 47.5028 34.884 47.5561 34.9273 47.6108C34.9713 47.6648 35.0168 47.7202 35.0637 47.777L36.0651 49H35.7625L34.9358 48.0028C34.8591 47.9105 34.7895 47.8267 34.727 47.7514C34.6645 47.6761 34.6148 47.6019 34.5779 47.5288C34.5409 47.4556 34.5225 47.3764 34.5225 47.2912C34.5225 47.1932 34.5441 47.1072 34.5874 47.0334C34.6315 46.9588 34.6929 46.9009 34.7718 46.8597C34.8513 46.8178 34.9443 46.7969 35.0509 46.7969C35.1602 46.7969 35.2544 46.8182 35.3332 46.8608C35.412 46.9027 35.4727 46.9585 35.5154 47.0281C35.558 47.0969 35.5793 47.1719 35.5793 47.2528C35.5793 47.3572 35.5534 47.4478 35.5015 47.5245C35.4497 47.6012 35.379 47.6726 35.2895 47.7386L34.8548 48.0625C34.7568 48.1349 34.6904 48.2053 34.6556 48.2734C34.6208 48.3416 34.6034 48.3906 34.6034 48.4205C34.6034 48.4886 34.6212 48.5522 34.6567 48.6112C34.6922 48.6701 34.7423 48.7177 34.8069 48.7539C34.8715 48.7901 34.9472 48.8082 35.0338 48.8082C35.1162 48.8082 35.1965 48.7908 35.2746 48.756C35.3527 48.7205 35.4234 48.6694 35.4866 48.6026C35.5505 48.5359 35.6009 48.4556 35.6379 48.3619C35.6755 48.2681 35.6943 48.1626 35.6943 48.0455H35.9372C35.9372 48.1903 35.9205 48.3086 35.8872 48.4002C35.8538 48.4918 35.8161 48.5636 35.7742 48.6154C35.7323 48.6673 35.6986 48.706 35.673 48.7315C35.6645 48.7422 35.6567 48.7528 35.6496 48.7635C35.6425 48.7741 35.6347 48.7848 35.6262 48.7955C35.5558 48.8743 35.4671 48.9332 35.3598 48.9723C35.2526 49.0107 35.1468 49.0298 35.0423 49.0298ZM37.2212 49V46.8182H38.5295V47.0526H37.4854V47.7898H38.4315V48.0241H37.4854V49H37.2212ZM39.1993 46.8182V49H38.9479V46.8182H39.1993ZM40.3246 49.0341C40.1768 49.0341 40.0472 48.9989 39.9357 48.9286C39.8249 48.8583 39.7383 48.7599 39.6758 48.6335C39.614 48.5071 39.5831 48.3594 39.5831 48.1903C39.5831 48.0199 39.614 47.8711 39.6758 47.744C39.7383 47.6168 39.8249 47.5181 39.9357 47.4478C40.0472 47.3775 40.1768 47.3423 40.3246 47.3423C40.4723 47.3423 40.6016 47.3775 40.7124 47.4478C40.8239 47.5181 40.9105 47.6168 40.9723 47.744C41.0348 47.8711 41.0661 48.0199 41.0661 48.1903C41.0661 48.3594 41.0348 48.5071 40.9723 48.6335C40.9105 48.7599 40.8239 48.8583 40.7124 48.9286C40.6016 48.9989 40.4723 49.0341 40.3246 49.0341ZM40.3246 48.8082C40.4368 48.8082 40.5291 48.7795 40.6016 48.7219C40.674 48.6644 40.7276 48.5888 40.7624 48.495C40.7972 48.4013 40.8146 48.2997 40.8146 48.1903C40.8146 48.081 40.7972 47.979 40.7624 47.8846C40.7276 47.7901 40.674 47.7138 40.6016 47.6555C40.5291 47.5973 40.4368 47.5682 40.3246 47.5682C40.2124 47.5682 40.12 47.5973 40.0476 47.6555C39.9751 47.7138 39.9215 47.7901 39.8867 47.8846C39.8519 47.979 39.8345 48.081 39.8345 48.1903C39.8345 48.2997 39.8519 48.4013 39.8867 48.495C39.9215 48.5888 39.9751 48.6644 40.0476 48.7219C40.12 48.7795 40.2124 48.8082 40.3246 48.8082ZM41.7649 49L41.2663 47.3636H41.5305L41.8842 48.6165H41.9013L42.2507 47.3636H42.5192L42.8643 48.6122H42.8814L43.2351 47.3636H43.4993L43.0007 49H42.7536L42.3956 47.7429H42.37L42.0121 49H41.7649ZM44.4621 49.0341C44.3044 49.0341 44.1684 48.9993 44.0541 48.9297C43.9404 48.8594 43.8527 48.7614 43.7909 48.6357C43.7298 48.5092 43.6993 48.3622 43.6993 48.1946C43.6993 48.027 43.7298 47.8793 43.7909 47.7514C43.8527 47.6229 43.9387 47.5227 44.0487 47.451C44.1595 47.3786 44.2888 47.3423 44.4365 47.3423C44.5218 47.3423 44.6059 47.3565 44.689 47.3849C44.7721 47.4134 44.8477 47.4595 44.9159 47.5234C44.9841 47.5866 45.0384 47.6705 45.0789 47.7749C45.1194 47.8793 45.1396 48.0078 45.1396 48.1605V48.267H43.8783V48.0497H44.884C44.884 47.9574 44.8655 47.875 44.8286 47.8026C44.7923 47.7301 44.7405 47.6729 44.673 47.631C44.6063 47.5891 44.5274 47.5682 44.4365 47.5682C44.3364 47.5682 44.2497 47.593 44.1766 47.6428C44.1041 47.6918 44.0484 47.7557 44.0093 47.8345C43.9703 47.9134 43.9507 47.9979 43.9507 48.0881V48.233C43.9507 48.3565 43.972 48.4613 44.0146 48.5472C44.058 48.6325 44.118 48.6974 44.1947 48.7422C44.2714 48.7862 44.3605 48.8082 44.4621 48.8082C44.5281 48.8082 44.5878 48.799 44.6411 48.7805C44.695 48.7614 44.7416 48.733 44.7806 48.6953C44.8197 48.657 44.8499 48.6094 44.8712 48.5526L45.1141 48.6207C45.0885 48.7031 45.0455 48.7756 44.9852 48.8381C44.9248 48.8999 44.8502 48.9482 44.7615 48.983C44.6727 49.017 44.5729 49.0341 44.4621 49.0341ZM45.5221 49V47.3636H45.765V47.6108H45.782C45.8119 47.5298 45.8659 47.4641 45.944 47.4137C46.0221 47.3633 46.1102 47.3381 46.2082 47.3381C46.2267 47.3381 46.2497 47.3384 46.2774 47.3391C46.3051 47.3398 46.3261 47.3409 46.3403 47.3423V47.598C46.3318 47.5959 46.3122 47.5927 46.2817 47.5884C46.2519 47.5835 46.2203 47.581 46.1869 47.581C46.1073 47.581 46.0363 47.5977 45.9738 47.631C45.912 47.6637 45.863 47.7092 45.8268 47.7674C45.7913 47.8249 45.7735 47.8906 45.7735 47.9645V49H45.5221ZM47.7974 47.7301L47.5716 47.794C47.5574 47.7564 47.5364 47.7198 47.5087 47.6843C47.4817 47.6481 47.4448 47.6183 47.3979 47.5948C47.351 47.5714 47.291 47.5597 47.2179 47.5597C47.1177 47.5597 47.0343 47.5827 46.9675 47.6289C46.9015 47.6744 46.8684 47.7322 46.8684 47.8026C46.8684 47.8651 46.8912 47.9144 46.9366 47.9506C46.9821 47.9869 47.0531 48.017 47.1497 48.0412L47.3926 48.1009C47.5389 48.1364 47.6479 48.1907 47.7196 48.2638C47.7914 48.3363 47.8272 48.4297 47.8272 48.544C47.8272 48.6378 47.8002 48.7216 47.7463 48.7955C47.693 48.8693 47.6184 48.9276 47.5225 48.9702C47.4267 49.0128 47.3152 49.0341 47.188 49.0341C47.0211 49.0341 46.883 48.9979 46.7736 48.9254C46.6642 48.853 46.595 48.7472 46.5659 48.608L46.8045 48.5483C46.8272 48.6364 46.8702 48.7024 46.9334 48.7464C46.9973 48.7905 47.0808 48.8125 47.1838 48.8125C47.301 48.8125 47.394 48.7876 47.4629 48.7379C47.5325 48.6875 47.5673 48.6271 47.5673 48.5568C47.5673 48.5 47.5474 48.4524 47.5076 48.4141C47.4679 48.375 47.4068 48.3459 47.3244 48.3267L47.0517 48.2628C46.9018 48.2273 46.7917 48.1722 46.7214 48.0977C46.6518 48.0224 46.617 47.9283 46.617 47.8153C46.617 47.723 46.6429 47.6413 46.6948 47.5703C46.7473 47.4993 46.8187 47.4435 46.9089 47.4031C46.9998 47.3626 47.1028 47.3423 47.2179 47.3423C47.3798 47.3423 47.5069 47.3778 47.5993 47.4489C47.6923 47.5199 47.7583 47.6136 47.7974 47.7301Z" fill="#437D43"/>
</svg>
